<?xml version="1.0" encoding="utf-8"?>
<!-- Generator: Adobe Illustrator 15.0.0, SVG Export Plug-In . SVG Version: 6.00 Build 0)  -->
<!DOCTYPE svg PUBLIC "-//W3C//DTD SVG 1.1//EN" "http://www.w3.org/Graphics/SVG/1.1/DTD/svg11.dtd">
<svg version="1.1" id="Layer_1" xmlns="http://www.w3.org/2000/svg" xmlns:xlink="http://www.w3.org/1999/xlink" x="0px" y="0px"
	 width="150px" height="150px" viewBox="175 175 150 150" enable-background="new 175 175 150 150" xml:space="preserve">
<g id="esDE34.tif">
	<g>
		<g>
			<path fill="#FFFFFF" d="M167.387,369.316c0-61.52,0-122.957,0-185.048c49.673,0,99.59,0,150.327,0c0,61.356,0,123.203,0,185.048
				C268.122,369.316,217.958,369.316,167.387,369.316z M304.968,299.137c-16.42-36.355-31.861-70.997-48.447-105.391
				c-0.816-1.635-16.584-1.716-17.32-0.082c-16.504,34.313-31.781,68.954-48.121,105.393
				C230.541,299.137,265.835,299.137,304.968,299.137z"/>
			<path d="M304.968,299.137c-39.133,0-74.509,0-113.888,0c16.34-36.438,31.699-71.078,48.121-105.391
				c0.735-1.635,16.503-1.635,17.32,0.081C273.106,228.14,288.548,262.863,304.968,299.137z M249.822,209.595
				c-1.879,0.245-3.759,0.571-5.72,0.816c-5.637,13.562-11.274,27.043-17.401,41.422c15.768,0,27.941,0,42.484,0
				C262.321,236.719,256.112,223.157,249.822,209.595z M242.55,290.723c-0.572-9.477-0.98-16.34-1.389-23.857
				c-25.899-4.002-27.859,9.396-30.72,23.857C220.982,290.723,230.295,290.723,242.55,290.723z M285.116,290.396
				c-6.945-25-7.189-25.082-29.576-21.324c0,6.943,0,13.807,0,21.324C266.243,290.396,275.558,290.396,285.116,290.396z"/>
			<path fill="#FFFFFF" d="M249.822,209.595c6.208,13.562,12.417,27.124,19.444,42.239c-14.543,0-26.716,0-42.484,0
				c6.045-14.379,11.683-27.942,17.401-41.422C246.063,210.167,248.023,209.921,249.822,209.595z"/>
			<path fill="#FFFFFF" d="M242.55,290.723c-12.337,0-21.65,0-32.108,0c2.86-14.461,4.82-27.859,30.72-23.857
				C241.57,274.383,241.978,281.246,242.55,290.723z"/>
			<path fill="#FFFFFF" d="M285.116,290.396c-9.641,0-18.873,0-29.576,0c0-7.436,0-14.381,0-21.324
				C278.007,265.232,278.253,265.477,285.116,290.396z"/>
		</g>
	</g>
</g>
</svg>
