<?xml version="1.0" encoding="utf-8"?>
<!-- Generator: Adobe Illustrator 18.1.0, SVG Export Plug-In . SVG Version: 6.00 Build 0)  -->
<svg version="1.1" id="Layer_1" xmlns="http://www.w3.org/2000/svg" xmlns:xlink="http://www.w3.org/1999/xlink" x="0px" y="0px"
	 viewBox="0 558 612 234" enable-background="new 0 558 612 234" xml:space="preserve">
<g id="zaAj5h.tif_1_">
	<g>
		<g>
			<path fill="#FFFFFF" d="M437.8,741.7c0-46.1,0-92.1,0-138.2c62.3,0,124.6,0,186.8,0c0,46.1,0,92.1,0,138.2
				C562.4,741.7,500.1,741.7,437.8,741.7z M520.6,663.3c2.9,0,5.9,0,8.8,0c1,6.1,3.2,12.2,2.8,18.3c-0.8,13.8,3.5,23.3,21.9,24.5
				c15.9,1,28.5-2.2,29.2-17.9c0.8-14.8-9.3-21.4-26.1-21.4c-3.1,0-8.2,1-9-0.2c-6.2-8.5-12.6-17.2-16.4-26.6
				c-0.8-2.2,8.3-7.2,16.8-13.9c1,12.5,0.5,18.4,2.1,23.9c4,13.3,17.6,15.5,29.5,12.1c8.3-2.3,20.1-11.4,19.5-16.6
				c-0.9-7.7-11-20.6-17.8-20.9c-39.5-1.8-79.3-1.7-118.9,0.5c-6.8,0.4-16.9,13.3-17.5,21c-0.5,5.1,12.4,14.6,20.7,15.9
				c23.5,3.7,31.5-5.5,29.8-31c7.5,0.4,14.9,0.8,22,1.2c2,25.9-2.6,32.5-26.2,34.3c-17.4,1.4-26.2,8.9-25.3,22.5
				c0.8,12.3,10.7,19,25.6,16.9c15.3-2.2,28.3-6.5,25.6-23.7C516.8,676.1,519.5,669.6,520.6,663.3z"/>
			<path fill="#010101" d="M520.6,663.3c-1.1,6.3-3.8,12.8-2.8,18.8c2.7,17.1-10.3,21.5-25.6,23.7c-15.1,2.2-24.9-4.6-25.6-16.9
				c-0.9-13.6,8-21.2,25.3-22.5c23.5-1.8,28.2-8.4,26.2-34.3c-7.1-0.4-14.4-0.8-22-1.2c1.7,25.5-6.3,34.7-29.8,31
				c-8.3-1.3-21.1-10.8-20.7-15.9c0.8-7.7,10.8-20.7,17.7-21.1c39.5-2.2,79.3-2.3,118.9-0.5c6.8,0.3,16.9,13.1,17.7,20.9
				c0.6,5.2-11.3,14.3-19.5,16.6c-11.9,3.4-25.5,1.3-29.5-12.1c-1.7-5.5-1.1-11.4-2.1-23.9c-8.4,6.9-17.6,11.9-16.8,13.9
				c3.8,9.3,10.2,18.1,16.4,26.6c0.8,1.2,5.9,0.2,9,0.2c16.8,0.1,26.8,6.5,26.1,21.4c-0.8,15.8-13.4,19-29.2,17.9
				c-18.4-1.2-22.7-10.7-21.9-24.5c0.4-6-1.7-12.2-2.8-18.3C526.4,663.3,523.4,663.3,520.6,663.3z M556.8,703
				c7.5-7.2,16.2-12.2,15.4-15.6c-1.1-4.6-8.9-10.4-14.7-11.3c-4.1-0.6-13.6,6-13.8,9.6C543.5,690.3,550.3,695.2,556.8,703z
				 M558.6,639c0.1,3.5,0.2,7.1,0.3,10.6c9.3,0.6,18.6,1.3,27.8,1.8c-0.2-5.1-0.4-10.1-0.5-15.2C577,637.1,567.8,638.1,558.6,639z
				 M491.2,643.6c-9.1-5.3-14.8-11.3-18.8-10.5c-6.1,1.1-11,6.9-16.3,10.7c5.4,3.7,10.4,9.2,16.3,10.2
				C476.6,654.6,482.2,648.9,491.2,643.6z M508,687.9c-7.9-5.8-12.9-12.3-17.3-12c-5,0.3-12.5,6.3-13.1,10.5
				c-0.5,3.4,6.9,10.1,11.8,10.9C493.8,698.1,499.4,692.6,508,687.9z"/>
			<path fill="#FFFFFF" d="M556.8,703c-6.4-7.9-13.2-12.7-13.1-17.3c0.2-3.6,9.6-10.3,13.8-9.6c5.9,0.9,13.7,6.6,14.7,11.3
				C573,690.8,564.3,695.8,556.8,703z"/>
			<path fill="#FFFFFF" d="M558.6,639c9.2-0.9,18.5-1.8,27.6-2.7c0.2,5.1,0.4,10.1,0.5,15.2c-9.3-0.6-18.6-1.3-27.8-1.8
				C558.8,646,558.7,642.5,558.6,639z"/>
			<path fill="#FFFFFF" d="M491.2,643.6c-9,5.3-14.7,11-18.8,10.3c-6-1-11-6.5-16.3-10.2c5.4-3.8,10.3-9.6,16.3-10.7
				C476.4,632.4,482.2,638.3,491.2,643.6z"/>
			<path fill="#FFFFFF" d="M508,687.9c-8.5,4.6-14.2,10.1-18.6,9.4c-4.9-0.8-12.3-7.5-11.8-10.9c0.6-4.1,8.1-10.2,13.1-10.5
				C495.1,675.7,500,682.1,508,687.9z"/>
		</g>
	</g>
</g>
</svg>
