<?xml version="1.0" encoding="utf-8"?>
<!-- Generator: Adobe Illustrator 18.1.0, SVG Export Plug-In . SVG Version: 6.00 Build 0)  -->
<svg version="1.1" id="Layer_1" xmlns="http://www.w3.org/2000/svg" xmlns:xlink="http://www.w3.org/1999/xlink" x="0px" y="0px"
	 viewBox="0 564 612 228" enable-background="new 0 564 612 228" xml:space="preserve">
<g id="BOLaLV.tif">
	<g>
		<g>
			<path fill="#FFFFFF" d="M601.9,776.8c-44.5,0-89,0-133.9,0c0-60.3,0-120.7,0-182c44.4,0,89.1,0,133.9,0
				C601.9,655.2,601.9,715.9,601.9,776.8z M509.8,618.5c2.2,11.9,3.9,21.4,5.6,30.9c-16.1,3.1-38.1-5.6-38,21.4
				c0,7.2,10.2,14.4,15.7,21.5c8.7-8.9,17.5-17.7,26.1-26.6c-1.2-2.2-2.4-4.4-3.6-6.6c7.3,1.3,14.6,2.7,21.2,3.9
				c-10.9,16.9-20.6,32.1-32.9,51.2c30.7,0,53.9,0,82.9,0c-10-18.9-17.9-33.9-24.6-46.7c7.2-15.1,14.6-30.6,23.5-49.1
				C557.1,618.5,534.9,618.5,509.8,618.5z"/>
			<path d="M509.8,618.5c25.1,0,47.2,0,75.9,0c-8.8,18.4-16.3,34-23.5,49.1c6.7,12.8,14.7,27.9,24.6,46.7c-29,0-52.2,0-82.9,0
				c12.3-19.1,22-34.3,32.9-51.2c-6.6-1.2-13.9-2.6-21.2-3.9c1.2,2.2,2.4,4.4,3.6,6.6c-8.7,8.9-17.5,17.7-26.1,26.6
				c-5.5-7.2-15.7-14.4-15.7-21.5c0-27,22-18.3,38-21.4C513.8,639.8,512,630.4,509.8,618.5z M523.9,628.1
				c8.8,13.1,15.6,23.1,24.8,37c9.2-14.3,15.7-24.4,23.8-37C554.4,628.1,541.4,628.1,523.9,628.1z M523.5,705.7
				c18.4,0,31.5,0,49.7,0c-8.9-13.2-15.7-23.2-24.9-36.8C539.2,682.4,532.6,692.1,523.5,705.7z"/>
			<path fill="#FFFFFF" d="M523.9,628.1c17.5,0,30.6,0,48.6,0c-8.1,12.5-14.5,22.6-23.8,37C539.4,651.2,532.6,641.2,523.9,628.1z"/>
			<path fill="#FFFFFF" d="M523.5,705.7c9.2-13.7,15.7-23.3,24.8-36.8c9.2,13.6,15.9,23.6,24.9,36.8
				C555,705.7,541.9,705.7,523.5,705.7z"/>
		</g>
	</g>
</g>
</svg>
