<?xml version="1.0" encoding="utf-8"?>
<!-- Generator: Adobe Illustrator 18.1.0, SVG Export Plug-In . SVG Version: 6.00 Build 0)  -->
<svg version="1.1" id="Layer_1" xmlns="http://www.w3.org/2000/svg" xmlns:xlink="http://www.w3.org/1999/xlink" x="0px" y="0px"
	 viewBox="0 564 612 228" enable-background="new 0 564 612 228" xml:space="preserve">
<g id="esDE34.tif">
	<g>
		<g>
			<path fill="#FFFFFF" d="M430,813c0-75.3,0-150.5,0-226.5c60.8,0,121.9,0,184,0c0,75.1,0,150.8,0,226.5
				C553.3,813,491.9,813,430,813z M598.4,727.1c-20.1-44.5-39-86.9-59.3-129c-1-2-20.3-2.1-21.2-0.1c-20.2,42-38.9,84.4-58.9,129
				C507.3,727.1,550.5,727.1,598.4,727.1z"/>
			<path d="M598.4,727.1c-47.9,0-91.2,0-139.4,0c20-44.6,38.8-87,58.9-129c0.9-2,20.2-2,21.2,0.1
				C559.4,640.2,578.3,682.7,598.4,727.1z M530.9,617.5c-2.3,0.3-4.6,0.7-7,1c-6.9,16.6-13.8,33.1-21.3,50.7c19.3,0,34.2,0,52,0
				C546.2,650.7,538.6,634.1,530.9,617.5z M522,716.8c-0.7-11.6-1.2-20-1.7-29.2c-31.7-4.9-34.1,11.5-37.6,29.2
				C495.6,716.8,507,716.8,522,716.8z M574.1,716.4c-8.5-30.6-8.8-30.7-36.2-26.1c0,8.5,0,16.9,0,26.1
				C551,716.4,562.4,716.4,574.1,716.4z"/>
			<path fill="#FFFFFF" d="M530.9,617.5c7.6,16.6,15.2,33.2,23.8,51.7c-17.8,0-32.7,0-52,0c7.4-17.6,14.3-34.2,21.3-50.7
				C526.3,618.2,528.7,617.9,530.9,617.5z"/>
			<path fill="#FFFFFF" d="M522,716.8c-15.1,0-26.5,0-39.3,0c3.5-17.7,5.9-34.1,37.6-29.2C520.8,696.8,521.3,705.2,522,716.8z"/>
			<path fill="#FFFFFF" d="M574.1,716.4c-11.8,0-23.1,0-36.2,0c0-9.1,0-17.6,0-26.1C565.4,685.6,565.7,685.9,574.1,716.4z"/>
		</g>
	</g>
</g>
</svg>
