<?xml version="1.0" encoding="utf-8"?>
<!-- Generator: Adobe Illustrator 18.1.0, SVG Export Plug-In . SVG Version: 6.00 Build 0)  -->
<svg version="1.1" id="Layer_1" xmlns="http://www.w3.org/2000/svg" xmlns:xlink="http://www.w3.org/1999/xlink" x="0px" y="0px"
	 viewBox="0 571 612 221" enable-background="new 0 571 612 221" xml:space="preserve">
<g id="zaAj5h.tif_1_">
	<g>
		<g>
			<path fill="#FFFFFF" d="M0,764c0-50.3,0-100.6,0-150.9c78,0,156.1,0,234,0c0,50.3,0,100.6,0,150.9C156.1,764,78,764,0,764z
				 M103.7,678.4c3.6,0,7.4,0,11,0c1.3,6.7,4,13.3,3.5,20c-1,15.1,4.4,25.4,27.4,26.7c19.9,1.1,35.7-2.4,36.6-19.5
				c1-16.2-11.6-23.4-32.7-23.4c-3.9,0-10.3,1.1-11.3-0.2c-7.8-9.3-15.8-18.8-20.5-29c-1-2.4,10.4-7.9,21-15.2
				c1.3,13.6,0.6,20.1,2.6,26.1c5,14.5,22,16.9,37,13.2c10.4-2.5,25.2-12.4,24.4-18.1c-1.1-8.4-13.8-22.5-22.3-22.8
				c-49.5-2-99.3-1.9-148.9,0.5c-8.5,0.4-21.2,14.5-21.9,22.9C9,665.2,25.2,675.6,35.6,677c29.4,4,39.5-6,37.3-33.8
				c9.4,0.4,18.7,0.9,27.6,1.3c2.5,28.3-3.3,35.5-32.8,37.4c-21.8,1.5-32.8,9.7-31.7,24.6c1,13.4,13.4,20.7,32.1,18.5
				c19.2-2.4,35.5-7.1,32.1-25.9C99,692.4,102.3,685.3,103.7,678.4z"/>
			<path fill="#010101" d="M103.7,678.4c-1.4,6.9-4.8,14-3.5,20.5c3.4,18.7-12.9,23.5-32.1,25.9c-18.9,2.4-31.2-5-32.1-18.5
				c-1.1-14.8,10-23.1,31.7-24.6c29.4-2,35.3-9.2,32.8-37.4c-8.9-0.4-18-0.9-27.6-1.3c2.1,27.8-7.9,37.9-37.3,33.8
				c-10.4-1.4-26.4-11.8-25.9-17.4c1-8.4,13.5-22.6,22.2-23c49.5-2.4,99.3-2.5,148.9-0.5c8.5,0.3,21.2,14.3,22.2,22.8
				c0.8,5.7-14.2,15.6-24.4,18.1c-14.9,3.7-31.9,1.4-37-13.2c-2.1-6-1.4-12.4-2.6-26.1c-10.5,7.5-22,13-21,15.2
				c4.8,10.2,12.8,19.8,20.5,29c1,1.3,7.4,0.2,11.3,0.2c21,0.1,33.6,7.1,32.7,23.4c-1,17.3-16.8,20.7-36.6,19.5
				c-23-1.3-28.4-11.7-27.4-26.7c0.5-6.6-2.1-13.3-3.5-20C111,678.4,107.2,678.4,103.7,678.4z M149.1,721.7
				c9.4-7.9,20.3-13.3,19.3-17c-1.4-5-11.1-11.4-18.4-12.3c-5.1-0.7-17,6.6-17.3,10.5C132.4,707.9,140.9,713.2,149.1,721.7z
				 M151.3,651.9c0.1,3.8,0.3,7.8,0.4,11.6c11.6,0.7,23.3,1.4,34.8,2c-0.3-5.6-0.5-11-0.6-16.6C174.4,649.8,162.8,650.9,151.3,651.9
				z M66.9,656.9c-11.4-5.8-18.5-12.3-23.6-11.5c-7.6,1.2-13.8,7.5-20.4,11.7c6.8,4,13,10,20.4,11.1
				C48.6,668.9,55.6,662.7,66.9,656.9z M87.9,705.3c-9.9-6.3-16.2-13.4-21.7-13.1c-6.3,0.3-15.7,6.9-16.4,11.5
				c-0.6,3.7,8.6,11,14.8,11.9C70.1,716.4,77.2,710.4,87.9,705.3z"/>
			<path fill="#FFFFFF" d="M149.1,721.7c-8-8.6-16.5-13.9-16.4-18.9c0.3-3.9,12-11.2,17.3-10.5c7.4,1,17.2,7.2,18.4,12.3
				C169.4,708.4,158.5,713.9,149.1,721.7z"/>
			<path fill="#FFFFFF" d="M151.3,651.9c11.5-1,23.2-2,34.6-2.9c0.3,5.6,0.5,11,0.6,16.6c-11.6-0.7-23.3-1.4-34.8-2
				C151.6,659.5,151.4,655.7,151.3,651.9z"/>
			<path fill="#FFFFFF" d="M66.9,656.9c-11.3,5.8-18.4,12-23.6,11.2C35.8,667,29.6,661,22.9,657c6.8-4.1,12.9-10.5,20.4-11.7
				C48.4,644.7,55.6,651.1,66.9,656.9z"/>
			<path fill="#FFFFFF" d="M87.9,705.3c-10.6,5-17.8,11-23.3,10.3c-6.1-0.9-15.4-8.2-14.8-11.9c0.8-4.5,10.1-11.1,16.4-11.5
				C71.8,691.9,77.9,698.9,87.9,705.3z"/>
		</g>
	</g>
</g>
</svg>
