<?xml version="1.0" encoding="utf-8"?>
<!-- Generator: Adobe Illustrator 18.1.0, SVG Export Plug-In . SVG Version: 6.00 Build 0)  -->
<svg version="1.1" id="Layer_1" xmlns="http://www.w3.org/2000/svg" xmlns:xlink="http://www.w3.org/1999/xlink" x="0px" y="0px"
	 viewBox="0 564 612 228" enable-background="new 0 564 612 228" xml:space="preserve">
<g id="_x37_t2pvV.tif">
	<g>
		<g>
			<path fill="#FFFFFF" d="M465.9,767c0-64.1,0-127,0-190.6c51.8,0,103.7,0,155.5,0c0,63.2,0,126.8,0,190.6
				C570,767,518.6,767,465.9,767z M529.3,722c3.5,0.1,6.8,0.2,10.3,0.3c2.2-11.6,4.5-23.2,6.6-34.4c15.9-0.7,28.4-1.4,42.5-2
				c0-17.5,0-34,0-50.9c-15.9-1-29.5-1.8-43.3-2.7c-1.9-12.2-3.7-23.1-5.5-34c-3.7,0.1-7.4,0.2-11.1,0.3c0,15.7,0,31.3,0,47.5
				c14.5,0.6,28.3,1.1,43.5,1.7c0,10.4,0,19.6,0,29.5c-16,0.7-30,1.3-43,1.8C529.3,693.9,529.3,708,529.3,722z"/>
			<path d="M529.3,722c0-14,0-28.1,0-42.9c13-0.6,27-1.1,43-1.8c0-9.9,0-19,0-29.5c-15.2-0.6-29.1-1.1-43.5-1.7
				c0-16.2,0-31.9,0-47.5c3.7-0.1,7.4-0.2,11.1-0.3c1.7,10.9,3.5,21.8,5.5,34c13.8,0.8,27.4,1.7,43.3,2.7c0,16.9,0,33.4,0,50.9
				c-14,0.7-26.6,1.3-42.5,2c-2.2,11.3-4.4,22.9-6.6,34.4C536.2,722.2,532.8,722.1,529.3,722z"/>
		</g>
	</g>
</g>
<g id="zaAj5h.tif_1_">
	<g>
		<g>
			<path fill="#FFFFFF" d="M0,745c0-46.1,0-92.1,0-138.2c62.3,0,124.6,0,186.8,0c0,46.1,0,92.1,0,138.2C124.6,745,62.3,745,0,745z
				 M82.8,666.6c2.9,0,5.9,0,8.8,0c1,6.1,3.2,12.2,2.8,18.3c-0.8,13.8,3.5,23.3,21.9,24.5c15.9,1,28.5-2.2,29.2-17.9
				c0.8-14.8-9.3-21.4-26.1-21.4c-3.1,0-8.2,1-9-0.2c-6.2-8.5-12.6-17.2-16.4-26.6c-0.8-2.2,8.3-7.2,16.8-13.9
				c1,12.5,0.5,18.4,2.1,23.9c4,13.3,17.6,15.5,29.5,12.1c8.3-2.3,20.1-11.4,19.5-16.6c-0.9-7.7-11-20.6-17.8-20.9
				c-39.5-1.8-79.3-1.7-118.9,0.5c-6.8,0.4-16.9,13.3-17.5,21c-0.5,5.1,12.4,14.6,20.7,15.9c23.5,3.7,31.5-5.5,29.8-31
				c7.5,0.4,14.9,0.8,22,1.2c2,25.9-2.6,32.5-26.2,34.3c-17.4,1.4-26.2,8.9-25.3,22.5c0.8,12.3,10.7,19,25.6,16.9
				c15.3-2.2,28.3-6.5,25.6-23.7C79,679.4,81.7,672.9,82.8,666.6z"/>
			<path fill="#010101" d="M82.8,666.6c-1.1,6.3-3.8,12.8-2.8,18.8c2.7,17.1-10.3,21.5-25.6,23.7c-15.1,2.2-24.9-4.6-25.6-16.9
				c-0.9-13.6,8-21.2,25.3-22.5c23.5-1.8,28.2-8.4,26.2-34.3c-7.1-0.4-14.4-0.8-22-1.2c1.7,25.5-6.3,34.7-29.8,31
				c-8.3-1.3-21.1-10.8-20.7-15.9c0.8-7.7,10.8-20.7,17.7-21.1c39.5-2.2,79.3-2.3,118.9-0.5c6.8,0.3,16.9,13.1,17.7,20.9
				c0.6,5.2-11.3,14.3-19.5,16.6c-11.9,3.4-25.5,1.3-29.5-12.1c-1.7-5.5-1.1-11.4-2.1-23.9c-8.4,6.9-17.6,11.9-16.8,13.9
				c3.8,9.3,10.2,18.1,16.4,26.6c0.8,1.2,5.9,0.2,9,0.2c16.8,0.1,26.8,6.5,26.1,21.4c-0.8,15.8-13.4,19-29.2,17.9
				c-18.4-1.2-22.7-10.7-21.9-24.5c0.4-6-1.7-12.2-2.8-18.3C88.6,666.6,85.6,666.6,82.8,666.6z M119,706.3
				c7.5-7.2,16.2-12.2,15.4-15.6c-1.1-4.6-8.9-10.4-14.7-11.3c-4.1-0.6-13.6,6-13.8,9.6C105.7,693.6,112.5,698.5,119,706.3z
				 M120.8,642.3c0.1,3.5,0.2,7.1,0.3,10.6c9.3,0.6,18.6,1.3,27.8,1.8c-0.2-5.1-0.4-10.1-0.5-15.2
				C139.2,640.4,130,641.4,120.8,642.3z M53.4,646.9c-9.1-5.3-14.8-11.3-18.8-10.5c-6.1,1.1-11,6.9-16.3,10.7
				c5.4,3.7,10.4,9.2,16.3,10.2C38.8,657.9,44.4,652.2,53.4,646.9z M70.2,691.2c-7.9-5.8-12.9-12.3-17.3-12
				c-5,0.3-12.5,6.3-13.1,10.5c-0.5,3.4,6.9,10.1,11.8,10.9C56,701.4,61.6,695.9,70.2,691.2z"/>
			<path fill="#FFFFFF" d="M119,706.3c-6.4-7.9-13.2-12.7-13.1-17.3c0.2-3.6,9.6-10.3,13.8-9.6c5.9,0.9,13.7,6.6,14.7,11.3
				C135.2,694.1,126.5,699.1,119,706.3z"/>
			<path fill="#FFFFFF" d="M120.8,642.3c9.2-0.9,18.5-1.8,27.6-2.7c0.2,5.1,0.4,10.1,0.5,15.2c-9.3-0.6-18.6-1.3-27.8-1.8
				C121,649.3,120.9,645.8,120.8,642.3z"/>
			<path fill="#FFFFFF" d="M53.4,646.9c-9,5.3-14.7,11-18.8,10.3c-6-1-11-6.5-16.3-10.2c5.4-3.8,10.3-9.6,16.3-10.7
				C38.6,635.7,44.4,641.6,53.4,646.9z"/>
			<path fill="#FFFFFF" d="M70.2,691.2c-8.5,4.6-14.2,10.1-18.6,9.4c-4.9-0.8-12.3-7.5-11.8-10.9c0.6-4.1,8.1-10.2,13.1-10.5
				C57.3,679,62.2,685.4,70.2,691.2z"/>
		</g>
	</g>
</g>
</svg>
