<?xml version="1.0" encoding="utf-8"?>
<!-- Generator: Adobe Illustrator 18.1.0, SVG Export Plug-In . SVG Version: 6.00 Build 0)  -->
<svg version="1.1" id="Layer_1" xmlns="http://www.w3.org/2000/svg" xmlns:xlink="http://www.w3.org/1999/xlink" x="0px" y="0px"
	 viewBox="0 564 612 228" enable-background="new 0 564 612 228" xml:space="preserve">
<g id="zaAj5h.tif_1_">
	<g>
		<g>
			<path fill="#FFFFFF" d="M3.5,761c0-50.4,0-100.9,0-151.3c77.5,0,154.9,0,232.5,0c0,50.4,0,100.9,0,151.3
				C158.5,761,81,761,3.5,761z M106.5,675.3c3.7,0,7.3,0,11,0c1.3,6.6,4,13.4,3.5,19.9c-1.1,15.1,4.4,25.5,27.2,26.9
				c19.7,1.1,35.4-2.4,36.4-19.6c0.9-16.3-11.5-23.3-32.4-23.3c-3.9,0-10.2,1-11.2-0.3c-7.7-9.3-15.8-18.9-20.4-29.1
				c-1.1-2.4,10.4-7.8,20.9-15.3c1.3,13.7,0.5,20.2,2.6,26.2c5,14.6,21.9,16.9,36.7,13.3c10.3-2.6,24.9-12.4,24.2-18.1
				c-1.1-8.4-13.6-22.4-22.2-22.9c-49.2-2.1-98.6-1.8-147.8,0.6c-8.5,0.4-21.1,14.6-21.8,23.1c-0.5,5.5,15.4,15.9,25.8,17.4
				c29.2,4.1,39.2-6,37.1-33.9c9.4,0.5,18.6,0.9,27.3,1.3c2.5,28.4-3.2,35.7-32.5,37.6c-21.5,1.5-32.6,9.7-31.6,24.8
				c0.9,13.5,13.2,20.7,32,18.5c19-2.4,35.2-7.2,32-25.9C101.9,689.3,105.1,682.2,106.5,675.3z"/>
			<path fill="#010101" d="M106.5,675.3c-1.3,6.9-4.7,13.9-3.4,20.6c3.3,18.8-12.8,23.5-32,25.9c-18.7,2.4-31-5-32-18.5
				c-1.2-14.9,10-23.2,31.6-24.8c29.3-2.1,35.1-9.2,32.5-37.6c-8.7-0.4-17.8-0.9-27.3-1.3c2.3,27.9-7.9,38-37.1,33.9
				c-10.4-1.4-26.3-11.9-25.8-17.5c0.7-8.3,13.3-22.5,21.8-23c49.1-2.4,98.6-2.6,147.8-0.6c8.5,0.4,21.1,14.4,22.2,22.9
				c0.7,5.7-14,15.6-24.2,18.1c-14.8,3.6-31.7,1.3-36.7-13.3c-2-6-1.4-12.5-2.6-26.2c-10.5,7.5-21.9,13-20.9,15.3
				c4.8,10.2,12.7,19.7,20.4,29.1c1.1,1.3,7.4,0.3,11.2,0.3c21,0.1,33.4,7.2,32.4,23.3c-0.9,17.3-16.7,20.7-36.4,19.6
				c-22.9-1.3-28.2-11.8-27.2-26.9c0.5-6.5-2.3-13.4-3.5-19.9C113.8,675.3,110,675.3,106.5,675.3z M151.5,718.7
				c9.4-7.9,20.2-13.4,19.2-17.1c-1.4-5-11.1-11.4-18.3-12.3c-5.1-0.7-16.9,6.5-17.1,10.6C135,704.8,143.6,710.1,151.5,718.7z
				 M153.9,648.7c0.1,3.8,0.3,7.8,0.4,11.7c11.5,0.7,23.1,1.3,34.6,2.1c-0.2-5.5-0.5-11.1-0.6-16.7
				C176.7,646.6,165.2,647.5,153.9,648.7z M69.9,653.7c-11.3-5.9-18.4-12.3-23.4-11.6c-7.6,1.2-13.7,7.5-20.4,11.7
				c6.8,4,12.9,10.2,20.4,11.1C51.7,665.6,58.7,659.5,69.9,653.7z M90.9,702.3c-9.8-6.4-16-13.5-21.4-13.1
				c-6.1,0.4-15.5,6.9-16.3,11.5c-0.6,3.7,8.6,11.1,14.7,12C73.2,713.4,80.3,707.2,90.9,702.3z"/>
			<path fill="#FFFFFF" d="M151.5,718.7c-7.9-8.7-16.5-13.9-16.3-19c0.2-3.9,12-11.2,17.1-10.6c7.3,0.9,17,7.2,18.3,12.3
				C171.7,705.3,161,710.9,151.5,718.7z"/>
			<path fill="#FFFFFF" d="M153.9,648.7c11.5-0.9,23-2.1,34.4-3c0.2,5.5,0.5,11.1,0.6,16.7c-11.5-0.7-23.1-1.3-34.6-2.1
				C153.9,656.3,153.9,652.5,153.9,648.7z"/>
			<path fill="#FFFFFF" d="M69.9,653.7c-11.2,5.8-18.2,12-23.4,11.3c-7.5-1-13.7-7.2-20.4-11.1c6.8-4.2,12.8-10.4,20.4-11.7
				C51.6,641.4,58.7,647.8,69.9,653.7z"/>
			<path fill="#FFFFFF" d="M90.9,702.3c-10.6,5-17.7,11.1-23.1,10.3c-6-0.9-15.4-8.2-14.7-12c0.8-4.6,10.1-11.1,16.3-11.5
				C74.8,688.8,81,695.8,90.9,702.3z"/>
		</g>
	</g>
</g>
<g id="BOLaLV.tif">
	<g>
		<g>
			<path fill="#FFFFFF" d="M615.5,792c-55.7,0-111.3,0-167.5,0c0-66.9,0-134,0-202c55.5,0,111.5,0,167.5,0
				C615.5,657,615.5,724.4,615.5,792z M500.3,616.2c2.8,13.3,4.9,23.7,7.1,34.3c-20.2,3.5-47.7-6.2-47.6,23.8
				c0,7.9,12.8,15.9,19.7,23.9c10.9-9.9,21.8-19.7,32.7-29.6c-1.5-2.4-3-4.8-4.5-7.3c9.2,1.5,18.3,3,26.5,4.4
				c-13.6,18.8-25.8,35.6-41.2,56.8c38.4,0,67.4,0,103.7,0c-12.5-21-22.4-37.7-30.8-51.9c9-16.7,18.3-34,29.4-54.5
				C559.4,616.2,531.7,616.2,500.3,616.2z"/>
			<path d="M500.3,616.2c31.3,0,59.1,0,94.9,0c-11,20.5-20.4,37.7-29.4,54.5c8.4,14.2,18.4,30.9,30.8,51.9c-36.2,0-65.3,0-103.7,0
				c15.4-21.3,27.6-38,41.2-56.8c-8.2-1.4-17.3-2.9-26.5-4.4c1.5,2.4,3,4.8,4.5,7.3c-10.9,9.9-21.8,19.7-32.7,29.6
				c-6.9-7.9-19.7-15.9-19.7-23.9c0-30,27.5-20.3,47.6-23.8C505.2,639.9,503,629.5,500.3,616.2z M517.9,626.8
				c11,14.6,19.5,25.7,31,41c11.5-15.9,19.6-27,29.7-41C556,626.8,539.8,626.8,517.9,626.8z M517.4,713.1c23.1,0,39.4,0,62.2,0
				c-11.2-14.7-19.7-25.8-31.1-40.8C537,687.1,528.9,697.9,517.4,713.1z"/>
			<path fill="#FFFFFF" d="M517.9,626.8c21.9,0,38.2,0,60.8,0c-10.1,13.9-18.2,25.1-29.7,41C537.4,652.6,528.9,641.4,517.9,626.8z"
				/>
			<path fill="#FFFFFF" d="M517.4,713.1c11.5-15.2,19.7-25.9,31-40.8c11.5,15,19.9,26.2,31.1,40.8
				C556.8,713.1,540.4,713.1,517.4,713.1z"/>
		</g>
	</g>
</g>
</svg>
