<?xml version="1.0" encoding="utf-8"?>
<!-- Generator: Adobe Illustrator 18.1.0, SVG Export Plug-In . SVG Version: 6.00 Build 0)  -->
<svg version="1.1" id="Layer_1" xmlns="http://www.w3.org/2000/svg" xmlns:xlink="http://www.w3.org/1999/xlink" x="0px" y="0px"
	 viewBox="0 564 612 228" enable-background="new 0 564 612 228" xml:space="preserve">
<g id="zaAj5h.tif_1_">
	<g>
		<g>
			<path fill="#FFFFFF" d="M404.5,761c0-50.4,0-100.9,0-151.3c77.5,0,154.9,0,232.5,0c0,50.4,0,100.9,0,151.3
				C559.4,761,482,761,404.5,761z M507.5,675.3c3.7,0,7.3,0,11,0c1.3,6.6,4,13.4,3.5,19.9c-1.1,15.1,4.4,25.5,27.2,26.9
				c19.7,1.1,35.4-2.4,36.4-19.6c0.9-16.3-11.5-23.3-32.4-23.3c-3.9,0-10.2,1-11.2-0.3c-7.7-9.3-15.8-18.9-20.4-29.1
				c-1.1-2.4,10.4-7.8,20.9-15.3c1.3,13.7,0.5,20.2,2.6,26.2c5,14.6,21.9,16.9,36.7,13.3c10.3-2.6,24.9-12.4,24.2-18.1
				c-1.1-8.4-13.6-22.4-22.2-22.9c-49.2-2.1-98.6-1.8-147.8,0.6c-8.5,0.4-21.1,14.6-21.8,23.1c-0.5,5.5,15.4,15.9,25.8,17.4
				c29.2,4.1,39.2-6,37.1-33.9c9.4,0.5,18.6,0.9,27.3,1.3c2.5,28.4-3.2,35.7-32.5,37.6c-21.5,1.5-32.6,9.7-31.6,24.8
				c0.9,13.5,13.2,20.7,32,18.5c19-2.4,35.2-7.2,32-25.9C502.9,689.3,506.1,682.2,507.5,675.3z"/>
			<path fill="#010101" d="M507.5,675.3c-1.3,6.9-4.7,13.9-3.4,20.6c3.3,18.8-12.8,23.5-32,25.9c-18.7,2.4-31-5-32-18.5
				c-1.2-14.9,10-23.2,31.6-24.8c29.3-2.1,35.1-9.2,32.5-37.6c-8.7-0.4-17.8-0.9-27.3-1.3c2.3,27.9-7.9,38-37.1,33.9
				c-10.4-1.4-26.3-11.9-25.8-17.5c0.7-8.3,13.3-22.5,21.8-23c49.1-2.4,98.6-2.6,147.8-0.6c8.5,0.4,21.1,14.4,22.2,22.9
				c0.7,5.7-14,15.6-24.2,18.1c-14.8,3.6-31.7,1.3-36.7-13.3c-2-6-1.4-12.5-2.6-26.2c-10.5,7.5-21.9,13-20.9,15.3
				c4.8,10.2,12.7,19.7,20.4,29.1c1.1,1.3,7.4,0.3,11.2,0.3c21,0.1,33.4,7.2,32.4,23.3c-0.9,17.3-16.7,20.7-36.4,19.6
				c-22.9-1.3-28.2-11.8-27.2-26.9c0.5-6.5-2.3-13.4-3.5-19.9C514.7,675.3,511,675.3,507.5,675.3z M552.5,718.7
				c9.4-7.9,20.2-13.4,19.2-17.1c-1.4-5-11.1-11.4-18.3-12.3c-5.1-0.7-16.9,6.5-17.1,10.6C536,704.8,544.6,710.1,552.5,718.7z
				 M554.8,648.7c0.1,3.8,0.3,7.8,0.4,11.7c11.5,0.7,23.1,1.3,34.6,2.1c-0.2-5.5-0.5-11.1-0.6-16.7
				C577.7,646.6,566.2,647.5,554.8,648.7z M470.9,653.7c-11.3-5.9-18.4-12.3-23.4-11.6c-7.6,1.2-13.7,7.5-20.4,11.7
				c6.8,4,12.9,10.2,20.4,11.1C452.7,665.6,459.7,659.5,470.9,653.7z M491.9,702.3c-9.8-6.4-16-13.5-21.4-13.1
				c-6.1,0.4-15.5,6.9-16.3,11.5c-0.6,3.7,8.6,11.1,14.7,12C474.1,713.4,481.2,707.2,491.9,702.3z"/>
			<path fill="#FFFFFF" d="M552.5,718.7c-7.9-8.7-16.5-13.9-16.3-19c0.2-3.9,12-11.2,17.1-10.6c7.3,0.9,17,7.2,18.3,12.3
				C572.7,705.3,561.9,710.9,552.5,718.7z"/>
			<path fill="#FFFFFF" d="M554.8,648.7c11.5-0.9,23-2.1,34.4-3c0.2,5.5,0.5,11.1,0.6,16.7c-11.5-0.7-23.1-1.3-34.6-2.1
				C554.9,656.3,554.8,652.5,554.8,648.7z"/>
			<path fill="#FFFFFF" d="M470.9,653.7c-11.2,5.8-18.2,12-23.4,11.3c-7.5-1-13.7-7.2-20.4-11.1c6.8-4.2,12.8-10.4,20.4-11.7
				C452.6,641.4,459.6,647.8,470.9,653.7z"/>
			<path fill="#FFFFFF" d="M491.9,702.3c-10.6,5-17.7,11.1-23.1,10.3c-6-0.9-15.4-8.2-14.7-12c0.8-4.6,10.1-11.1,16.3-11.5
				C475.7,688.8,482,695.8,491.9,702.3z"/>
		</g>
	</g>
</g>
<g id="BOLaLV.tif">
	<g>
		<g>
			<path fill="#FFFFFF" d="M161,774c-49.9,0-99.7,0-150,0c0-63.7,0-127.5,0-192.1c49.7,0,99.8,0,150,0C161,645.6,161,709.7,161,774z
				 M57.8,606.8c2.5,12.6,4.4,22.5,6.3,32.7c-18.1,3.3-42.7-5.9-42.6,22.6c0,7.6,11.4,15.2,17.6,22.7c9.8-9.4,19.6-18.7,29.3-28.1
				c-1.3-2.3-2.6-4.6-4-6.9c8.2,1.4,16.4,2.8,23.8,4.1c-12.2,17.9-23.1,33.8-36.9,54.1c34.4,0,60.3,0,92.8,0
				c-11.2-19.9-20-35.8-27.6-49.4c8.1-15.9,16.4-32.3,26.3-51.8C110.8,606.8,85.9,606.8,57.8,606.8z"/>
			<path d="M57.8,606.8c28.1,0,52.9,0,85,0c-9.9,19.5-18.2,35.9-26.3,51.8c7.5,13.5,16.4,29.4,27.6,49.4c-32.4,0-58.4,0-92.8,0
				c13.8-20.2,24.7-36.2,36.9-54.1c-7.4-1.3-15.5-2.7-23.8-4.1c1.3,2.3,2.6,4.6,4,6.9c-9.8,9.4-19.6,18.7-29.3,28.1
				c-6.2-7.6-17.6-15.2-17.6-22.7c0-28.5,24.6-19.3,42.6-22.6C62.2,629.4,60.3,619.4,57.8,606.8z M73.6,616.9
				c9.9,13.9,17.4,24.4,27.8,39c10.3-15.1,17.5-25.7,26.6-39C107.7,616.9,93.2,616.9,73.6,616.9z M73.1,698.9c20.6,0,35.3,0,55.7,0
				c-10-14-17.6-24.5-27.8-38.8C90.7,674.3,83.4,684.5,73.1,698.9z"/>
			<path fill="#FFFFFF" d="M73.6,616.9c19.6,0,34.2,0,54.4,0c-9,13.2-16.3,23.9-26.6,39C91,641.4,83.4,630.8,73.6,616.9z"/>
			<path fill="#FFFFFF" d="M73.1,698.9c10.3-14.4,17.6-24.6,27.8-38.8c10.3,14.3,17.8,24.9,27.8,38.8
				C108.4,698.9,93.8,698.9,73.1,698.9z"/>
		</g>
	</g>
</g>
</svg>
