<?xml version="1.0" encoding="utf-8"?>
<!-- Generator: Adobe Illustrator 18.1.0, SVG Export Plug-In . SVG Version: 6.00 Build 0)  -->
<svg version="1.1" id="Layer_1" xmlns="http://www.w3.org/2000/svg" xmlns:xlink="http://www.w3.org/1999/xlink" x="0px" y="0px"
	 viewBox="0 555 612 178" enable-background="new 0 555 612 178" xml:space="preserve">
<g id="esDE34.tif">
	<g>
		<g>
			<path fill="#FFFFFF" d="M428,792.8c0-75.3,0-150.5,0-226.5c60.8,0,121.9,0,184,0c0,75.1,0,150.8,0,226.5
				C551.3,792.8,489.9,792.8,428,792.8z M596.4,706.9c-20.1-44.5-39-86.9-59.3-129c-1-2-20.3-2.1-21.2-0.1
				c-20.2,42-38.9,84.4-58.9,129C505.3,706.9,548.6,706.9,596.4,706.9z"/>
			<path d="M596.4,706.9c-47.9,0-91.2,0-139.4,0c20-44.6,38.8-87,58.9-129c0.9-2,20.2-2,21.2,0.1C557.4,620,576.3,662.5,596.4,706.9
				z M529,597.2c-2.3,0.3-4.6,0.7-7,1c-6.9,16.6-13.8,33.1-21.3,50.7c19.3,0,34.2,0,52,0C544.2,630.5,536.7,613.9,529,597.2z
				 M520,696.6c-0.7-11.6-1.2-20-1.7-29.2c-31.7-4.9-34.1,11.5-37.6,29.2C493.6,696.6,505,696.6,520,696.6z M572.2,696.2
				c-8.5-30.6-8.8-30.7-36.2-26.1c0,8.5,0,16.9,0,26.1C549.1,696.2,560.4,696.2,572.2,696.2z"/>
			<path fill="#FFFFFF" d="M529,597.2c7.6,16.6,15.2,33.2,23.8,51.7c-17.8,0-32.7,0-52,0c7.4-17.6,14.3-34.2,21.3-50.7
				C524.4,598,526.7,597.7,529,597.2z"/>
			<path fill="#FFFFFF" d="M520,696.6c-15.1,0-26.5,0-39.3,0c3.5-17.7,5.9-34.1,37.6-29.2C518.8,676.6,519.3,684.9,520,696.6z"/>
			<path fill="#FFFFFF" d="M572.2,696.2c-11.8,0-23.1,0-36.2,0c0-9.1,0-17.6,0-26.1C563.5,665.4,563.7,665.7,572.2,696.2z"/>
		</g>
	</g>
</g>
<g id="BOLaLV.tif">
	<g>
		<g>
			<path fill="#FFFFFF" d="M179,783c-51.6,0-103.3,0-155.4,0c0-75.6,0-151.3,0-228c51.5,0,103.5,0,155.4,0
				C179,630.6,179,706.7,179,783z M72.1,584.6c2.6,15,4.6,26.8,6.5,38.7c-18.7,4-44.3-7-44.2,26.9c0,9,11.8,18,18.3,27
				c10.2-11.1,20.2-22.3,30.4-33.3c-1.3-2.8-2.7-5.4-4.1-8.2c8.5,1.7,17,3.3,24.6,4.9c-12.7,21.2-24,40.2-38.2,64.1
				c35.7,0,62.5,0,96.2,0C150,681,140.8,662.1,133,646c8.3-18.8,17-38.3,27.3-61.4C126.9,584.6,101.2,584.6,72.1,584.6z"/>
			<path d="M72.1,584.6c29.1,0,54.9,0,88.1,0C150,607.7,141.4,627.1,133,646c7.8,16,17,34.9,28.6,58.6c-33.6,0-60.6,0-96.2,0
				c14.3-23.9,25.6-42.9,38.2-64.1c-7.7-1.6-16.1-3.2-24.6-4.9c1.3,2.8,2.7,5.4,4.1,8.2c-10.2,11.1-20.2,22.3-30.4,33.3
				c-6.4-9-18.3-18-18.3-27c0-33.8,25.5-22.9,44.2-26.9C76.6,611.3,74.6,599.6,72.1,584.6z M88.4,596.6c10.3,16.4,18,28.9,28.8,46.3
				c10.7-17.9,18.1-30.5,27.6-46.3C123.8,596.6,108.7,596.6,88.4,596.6z M87.9,693.9c21.4,0,36.6,0,57.7,0
				c-10.4-16.6-18.3-29.2-28.8-46.1C106.1,664.6,98.5,676.8,87.9,693.9z"/>
			<path fill="#FFFFFF" d="M88.4,596.6c20.3,0,35.5,0,56.4,0c-9.3,15.7-16.9,28.3-27.6,46.3C106.4,625.7,98.5,613.1,88.4,596.6z"/>
			<path fill="#FFFFFF" d="M87.9,693.9c10.7-17.1,18.3-29.2,28.8-46.1c10.7,17,18.5,29.6,28.8,46.1
				C124.6,693.9,109.3,693.9,87.9,693.9z"/>
		</g>
	</g>
</g>
</svg>
