<?xml version="1.0" encoding="utf-8"?>
<!-- Generator: Adobe Illustrator 18.1.0, SVG Export Plug-In . SVG Version: 6.00 Build 0)  -->
<svg version="1.1" id="Layer_1" xmlns="http://www.w3.org/2000/svg" xmlns:xlink="http://www.w3.org/1999/xlink" x="0px" y="0px"
	 viewBox="0 564 612 228" enable-background="new 0 564 612 228" xml:space="preserve">
<g id="_x37_t2pvV.tif">
	<g>
		<g>
			<path fill="#FFFFFF" d="M481,786.8c0-73.5,0-145.3,0-217.5c46.5,0,93,0,140,0c0,72.1,0,144.5,0,217.5
				C575,786.8,528.5,786.8,481,786.8z M548.3,595.2c-3.5-0.2-7.1-0.4-10.7-0.6c0,17.9,0,35.8,0,54.2c13.8,0.9,26.3,1.6,39.3,2.4
				c0,10.7,0,19.3,0,28.8c-14.6,1-27.1,1.9-38.4,2.6c0,18.7,0,36.2,0,53.7c3.1,0,6.3,0.1,9.4,0.2c1.7-13.4,3.3-26.8,5.1-41.8
				c13.3-0.8,25.6-1.6,38.7-2.3c0-19,0-35.9,0-53c-14.6-1.5-27-2.8-39.2-4.1C551,620.7,549.7,607.9,548.3,595.2z"/>
			<path d="M548.3,595.2c1.3,12.8,2.7,25.6,4.3,40.1c12.2,1.3,24.6,2.6,39.2,4.1c0,17,0,34,0,53c-13.1,0.8-25.4,1.5-38.7,2.3
				c-1.9,15-3.5,28.4-5.1,41.8c-3.1,0-6.3-0.1-9.4-0.2c0-17.5,0-35,0-53.7c11.2-0.8,23.8-1.6,38.4-2.6c0-9.5,0-18.1,0-28.8
				c-13.1-0.8-25.5-1.6-39.3-2.4c0-18.4,0-36.3,0-54.2C541.2,594.7,544.8,595,548.3,595.2z"/>
		</g>
	</g>
</g>
<g id="BOLaLV.tif">
	<g>
		<g>
			<path fill="#FFFFFF" d="M148.9,774.2c-47.9,0-95.7,0-144,0c0-63.6,0-127.4,0-192c47.7,0,95.9,0,144,0
				C148.9,645.8,148.9,709.9,148.9,774.2z M49.9,607.1c2.4,12.6,4.2,22.5,6.1,32.6c-17.3,3.3-41-5.9-40.9,22.6
				c0,7.5,11,15.2,16.9,22.7c9.4-9.4,18.8-18.7,28.1-28.1c-1.3-2.3-2.5-4.6-3.9-6.9c7.9,1.4,15.7,2.8,22.8,4.1
				c-11.7,17.9-22.1,33.8-35.4,54c33,0,57.9,0,89.1,0c-10.7-19.9-19.2-35.8-26.5-49.3c7.7-15.9,15.7-32.3,25.3-51.8
				C100.7,607.1,76.9,607.1,49.9,607.1z"/>
			<path d="M49.9,607.1c26.9,0,50.8,0,81.6,0c-9.5,19.5-17.5,35.9-25.3,51.8c7.2,13.5,15.8,29.4,26.5,49.3c-31.1,0-56.1,0-89.1,0
				c13.3-20.2,23.7-36.2,35.4-54c-7.1-1.3-14.9-2.7-22.8-4.1c1.3,2.3,2.5,4.6,3.9,6.9c-9.4,9.4-18.8,18.7-28.1,28.1
				C26,677.4,15,669.8,15,662.3c0-28.5,23.6-19.3,40.9-22.6C54.1,629.6,52.3,619.7,49.9,607.1z M65,617.2
				c9.5,13.8,16.7,24.4,26.7,39c9.9-15.1,16.8-25.7,25.6-39C97.8,617.2,83.8,617.2,65,617.2z M64.6,699.1c19.8,0,33.9,0,53.4,0
				c-9.6-14-16.9-24.5-26.7-38.8C81.5,674.5,74.5,684.7,64.6,699.1z"/>
			<path fill="#FFFFFF" d="M65,617.2c18.8,0,32.9,0,52.2,0c-8.7,13.2-15.6,23.8-25.6,39C81.7,641.6,74.5,631,65,617.2z"/>
			<path fill="#FFFFFF" d="M64.6,699.1c9.9-14.4,16.9-24.6,26.7-38.8c9.9,14.3,17.1,24.9,26.7,38.8
				C98.5,699.1,84.4,699.1,64.6,699.1z"/>
		</g>
	</g>
</g>
</svg>
