<?xml version="1.0" encoding="utf-8"?>
<!-- Generator: Adobe Illustrator 18.1.0, SVG Export Plug-In . SVG Version: 6.00 Build 0)  -->
<svg version="1.1" id="Layer_1" xmlns="http://www.w3.org/2000/svg" xmlns:xlink="http://www.w3.org/1999/xlink" x="0px" y="0px"
	 viewBox="0 564 612 228" enable-background="new 0 564 612 228" xml:space="preserve">
<g id="_x37_t2pvV.tif">
	<g>
		<g>
			<path fill="#FFFFFF" d="M-27.1,767c0-64.1,0-127,0-190.6c51.8,0,103.7,0,155.5,0c0,63.2,0,126.8,0,190.6
				C77,767,25.6,767-27.1,767z M36.3,722c3.5,0.1,6.8,0.2,10.3,0.3c2.2-11.6,4.5-23.2,6.6-34.4c15.9-0.7,28.4-1.4,42.5-2
				c0-17.5,0-34,0-50.9c-15.9-1-29.5-1.8-43.3-2.7c-1.9-12.2-3.7-23.1-5.5-34c-3.7,0.1-7.4,0.2-11.1,0.3c0,15.7,0,31.3,0,47.5
				c14.5,0.6,28.3,1.1,43.5,1.7c0,10.4,0,19.6,0,29.5c-16,0.7-30,1.3-43,1.8C36.3,693.9,36.3,708,36.3,722z"/>
			<path d="M36.3,722c0-14,0-28.1,0-42.9c13-0.6,27-1.1,43-1.8c0-9.9,0-19,0-29.5c-15.2-0.6-29.1-1.1-43.5-1.7c0-16.2,0-31.9,0-47.5
				c3.7-0.1,7.4-0.2,11.1-0.3c1.7,10.9,3.5,21.8,5.5,34c13.8,0.8,27.4,1.7,43.3,2.7c0,16.9,0,33.4,0,50.9c-14,0.7-26.6,1.3-42.5,2
				c-2.2,11.3-4.4,22.9-6.6,34.4C43.2,722.2,39.8,722.1,36.3,722z"/>
		</g>
	</g>
</g>
</svg>
