<?xml version="1.0" encoding="utf-8"?>
<!-- Generator: Adobe Illustrator 18.1.0, SVG Export Plug-In . SVG Version: 6.00 Build 0)  -->
<svg version="1.1" id="Layer_1" xmlns="http://www.w3.org/2000/svg" xmlns:xlink="http://www.w3.org/1999/xlink" x="0px" y="0px"
	 viewBox="0 558.3 612 177.7" enable-background="new 0 558.3 612 177.7" xml:space="preserve">
<g id="esDE34.tif">
	<g>
		<g>
			<path fill="#FFFFFF" d="M428,792c0-75.3,0-150.5,0-226.5c60.8,0,121.9,0,184,0c0,75.1,0,150.8,0,226.5
				C551.3,792,489.9,792,428,792z M596.4,706.1c-20.1-44.5-39-86.9-59.3-129c-1-2-20.3-2.1-21.2-0.1c-20.2,42-38.9,84.4-58.9,129
				C505.3,706.1,548.6,706.1,596.4,706.1z"/>
			<path d="M596.4,706.1c-47.9,0-91.2,0-139.4,0c20-44.6,38.8-87,58.9-129c0.9-2,20.2-2,21.2,0.1
				C557.4,619.2,576.3,661.7,596.4,706.1z M529,596.5c-2.3,0.3-4.6,0.7-7,1c-6.9,16.6-13.8,33.1-21.3,50.7c19.3,0,34.2,0,52,0
				C544.2,629.7,536.7,613.1,529,596.5z M520,695.8c-0.7-11.6-1.2-20-1.7-29.2c-31.7-4.9-34.1,11.5-37.6,29.2
				C493.6,695.8,505,695.8,520,695.8z M572.2,695.4c-8.5-30.6-8.8-30.7-36.2-26.1c0,8.5,0,16.9,0,26.1
				C549.1,695.4,560.4,695.4,572.2,695.4z"/>
			<path fill="#FFFFFF" d="M529,596.5c7.6,16.6,15.2,33.2,23.8,51.7c-17.8,0-32.7,0-52,0c7.4-17.6,14.3-34.2,21.3-50.7
				C524.4,597.2,526.7,596.9,529,596.5z"/>
			<path fill="#FFFFFF" d="M520,695.8c-15.1,0-26.5,0-39.3,0c3.5-17.7,5.9-34.1,37.6-29.2C518.8,675.8,519.3,684.1,520,695.8z"/>
			<path fill="#FFFFFF" d="M572.2,695.4c-11.8,0-23.1,0-36.2,0c0-9.1,0-17.6,0-26.1C563.5,664.6,563.7,664.9,572.2,695.4z"/>
		</g>
	</g>
</g>
<g id="_x37_t2pvV.tif">
	<g>
		<g>
			<path fill="#FFFFFF" d="M-14,775.8c0-73.5,0-145.3,0-217.5c46.5,0,93,0,140,0c0,72.1,0,144.5,0,217.5
				C80,775.8,33.5,775.8-14,775.8z M53.3,584.2c-3.5-0.2-7.1-0.4-10.7-0.6c0,17.9,0,35.8,0,54.2c13.8,0.9,26.3,1.6,39.3,2.4
				c0,10.7,0,19.3,0,28.8c-14.6,1-27.1,1.9-38.4,2.6c0,18.7,0,36.2,0,53.7c3.1,0,6.3,0.1,9.4,0.2c1.7-13.4,3.3-26.8,5.1-41.8
				c13.3-0.8,25.6-1.6,38.7-2.3c0-19,0-35.9,0-53c-14.6-1.5-27-2.8-39.2-4.1C56,609.8,54.7,597,53.3,584.2z"/>
			<path d="M53.3,584.2c1.3,12.8,2.7,25.6,4.3,40.1c12.2,1.3,24.6,2.6,39.2,4.1c0,17,0,34,0,53c-13.1,0.8-25.4,1.5-38.7,2.3
				c-1.9,15-3.5,28.4-5.1,41.8c-3.1,0-6.3-0.1-9.4-0.2c0-17.5,0-35,0-53.7c11.2-0.8,23.8-1.6,38.4-2.6c0-9.5,0-18.1,0-28.8
				c-13.1-0.8-25.5-1.6-39.3-2.4c0-18.4,0-36.3,0-54.2C46.2,583.8,49.8,584,53.3,584.2z"/>
		</g>
	</g>
</g>
</svg>
