<?xml version="1.0" encoding="utf-8"?>
<!-- Generator: Adobe Illustrator 18.1.0, SVG Export Plug-In . SVG Version: 6.00 Build 0)  -->
<svg version="1.1" id="Layer_1" xmlns="http://www.w3.org/2000/svg" xmlns:xlink="http://www.w3.org/1999/xlink" x="0px" y="0px"
	 viewBox="0 564 612 228" enable-background="new 0 564 612 228" xml:space="preserve">
<g id="_x37_t2pvV.tif">
	<g>
		<g>
			<path fill="#FFFFFF" d="M-24,790c0-73.5,0-145.3,0-217.5c46.5,0,93,0,140,0c0,72.1,0,144.5,0,217.5C70,790,23.5,790-24,790z
				 M43.3,598.4c-3.5-0.2-7.1-0.4-10.7-0.6c0,17.9,0,35.8,0,54.2c13.8,0.9,26.3,1.6,39.3,2.4c0,10.7,0,19.3,0,28.8
				c-14.6,1-27.1,1.9-38.4,2.6c0,18.7,0,36.2,0,53.7c3.1,0,6.3,0.1,9.4,0.2c1.7-13.4,3.3-26.8,5.1-41.8c13.3-0.8,25.6-1.6,38.7-2.3
				c0-19,0-35.9,0-53c-14.6-1.5-27-2.8-39.2-4.1C46,624,44.7,611.2,43.3,598.4z"/>
			<path d="M43.3,598.4c1.3,12.8,2.7,25.6,4.3,40.1c12.2,1.3,24.6,2.6,39.2,4.1c0,17,0,34,0,53c-13.1,0.8-25.4,1.5-38.7,2.3
				c-1.9,15-3.5,28.4-5.1,41.8c-3.1,0-6.3-0.1-9.4-0.2c0-17.5,0-35,0-53.7c11.2-0.8,23.8-1.6,38.4-2.6c0-9.5,0-18.1,0-28.8
				c-13.1-0.8-25.5-1.6-39.3-2.4c0-18.4,0-36.3,0-54.2C36.2,598,39.8,598.2,43.3,598.4z"/>
		</g>
	</g>
</g>
<g id="BOLaLV.tif">
	<g>
		<g>
			<path fill="#FFFFFF" d="M612,777.3c-47.9,0-95.7,0-144,0c0-63.6,0-127.4,0-192c47.7,0,95.9,0,144,0C612,649,612,713,612,777.3z
				 M512.9,610.2c2.4,12.6,4.2,22.5,6.1,32.6c-17.3,3.3-41-5.9-40.9,22.6c0,7.5,11,15.2,16.9,22.7c9.4-9.4,18.8-18.7,28.1-28.1
				c-1.3-2.3-2.5-4.6-3.9-6.9c7.9,1.4,15.7,2.8,22.8,4.1c-11.7,17.9-22.1,33.8-35.4,54c33,0,57.9,0,89.1,0
				c-10.7-19.9-19.2-35.8-26.5-49.3c7.7-15.9,15.7-32.3,25.3-51.8C563.8,610.2,539.9,610.2,512.9,610.2z"/>
			<path d="M512.9,610.2c26.9,0,50.8,0,81.6,0c-9.5,19.5-17.5,35.9-25.3,51.8c7.2,13.5,15.8,29.4,26.5,49.3c-31.1,0-56.1,0-89.1,0
				c13.3-20.2,23.7-36.2,35.4-54c-7.1-1.3-14.9-2.7-22.8-4.1c1.3,2.3,2.5,4.6,3.9,6.9c-9.4,9.4-18.8,18.7-28.1,28.1
				c-5.9-7.5-16.9-15.2-16.9-22.7c0-28.5,23.6-19.3,40.9-22.6C517.2,632.7,515.3,622.8,512.9,610.2z M528.1,620.3
				c9.5,13.8,16.7,24.4,26.7,39c9.9-15.1,16.8-25.7,25.6-39C560.9,620.3,546.9,620.3,528.1,620.3z M527.6,702.2
				c19.8,0,33.9,0,53.4,0c-9.6-14-16.9-24.5-26.7-38.8C544.5,677.6,537.5,687.8,527.6,702.2z"/>
			<path fill="#FFFFFF" d="M528.1,620.3c18.8,0,32.9,0,52.2,0c-8.7,13.2-15.6,23.8-25.6,39C544.8,644.8,537.5,634.1,528.1,620.3z"/>
			<path fill="#FFFFFF" d="M527.6,702.2c9.9-14.4,16.9-24.6,26.7-38.8c9.9,14.3,17.1,24.9,26.7,38.8
				C561.5,702.2,547.5,702.2,527.6,702.2z"/>
		</g>
	</g>
</g>
</svg>
