<?xml version="1.0" encoding="utf-8"?>
<!-- Generator: Adobe Illustrator 18.1.0, SVG Export Plug-In . SVG Version: 6.00 Build 0)  -->
<svg version="1.1" id="Layer_1" xmlns="http://www.w3.org/2000/svg" xmlns:xlink="http://www.w3.org/1999/xlink" x="0px" y="0px"
	 viewBox="0 564 612 228" enable-background="new 0 564 612 228" xml:space="preserve">
<g id="esDE34.tif">
	<g>
		<g>
			<path fill="#FFFFFF" d="M-15,823.1c0-75.3,0-150.5,0-226.5c60.8,0,121.9,0,184,0c0,75.1,0,150.8,0,226.5
				C108.3,823.1,46.9,823.1-15,823.1z M153.4,737.2c-20.1-44.5-39-86.9-59.3-129c-1-2-20.3-2.1-21.2-0.1
				c-20.2,42-38.9,84.4-58.9,129C62.3,737.2,105.5,737.2,153.4,737.2z"/>
			<path d="M153.4,737.2c-47.9,0-91.2,0-139.4,0c20-44.6,38.8-87,58.9-129c0.9-2,20.2-2,21.2,0.1
				C114.4,650.3,133.3,692.8,153.4,737.2z M85.9,627.6c-2.3,0.3-4.6,0.7-7,1c-6.9,16.6-13.8,33.1-21.3,50.7c19.3,0,34.2,0,52,0
				C101.2,660.8,93.6,644.2,85.9,627.6z M77,726.9c-0.7-11.6-1.2-20-1.7-29.2c-31.7-4.9-34.1,11.5-37.6,29.2
				C50.6,726.9,62,726.9,77,726.9z M129.1,726.5c-8.5-30.6-8.8-30.7-36.2-26.1c0,8.5,0,16.9,0,26.1
				C106,726.5,117.4,726.5,129.1,726.5z"/>
			<path fill="#FFFFFF" d="M85.9,627.6c7.6,16.6,15.2,33.2,23.8,51.7c-17.8,0-32.7,0-52,0c7.4-17.6,14.3-34.2,21.3-50.7
				C81.3,628.3,83.7,628,85.9,627.6z"/>
			<path fill="#FFFFFF" d="M77,726.9c-15.1,0-26.5,0-39.3,0c3.5-17.7,5.9-34.1,37.6-29.2C75.8,706.9,76.3,715.3,77,726.9z"/>
			<path fill="#FFFFFF" d="M129.1,726.5c-11.8,0-23.1,0-36.2,0c0-9.1,0-17.6,0-26.1C120.4,695.8,120.7,696,129.1,726.5z"/>
		</g>
	</g>
</g>
<g id="BOLaLV.tif">
	<g>
		<g>
			<path fill="#FFFFFF" d="M605.7,807c-49.8,0-99.6,0-149.9,0c0-72.6,0-145.3,0-219c49.7,0,99.8,0,149.9,0
				C605.7,660.6,605.7,733.7,605.7,807z M502.6,616.4c2.5,14.4,4.4,25.7,6.3,37.2c-18,3.8-42.7-6.7-42.6,25.8
				c0,8.6,11.4,17.3,17.6,25.9c9.8-10.7,19.5-21.4,29.3-32c-1.3-2.7-2.6-5.2-4-7.9c8.2,1.6,16.4,3.2,23.7,4.7
				c-12.2,20.4-23.1,38.6-36.8,61.6c34.4,0,60.3,0,92.8,0c-11.2-22.7-20-40.8-27.6-56.3c8-18.1,16.4-36.8,26.3-59
				C555.5,616.4,530.7,616.4,502.6,616.4z"/>
			<path d="M502.6,616.4c28.1,0,52.9,0,85,0c-9.9,22.2-18.2,40.9-26.3,59c7.5,15.4,16.4,33.5,27.6,56.3c-32.4,0-58.4,0-92.8,0
				c13.8-23,24.7-41.2,36.8-61.6c-7.4-1.5-15.5-3.1-23.7-4.7c1.3,2.7,2.6,5.2,4,7.9c-9.8,10.7-19.5,21.4-29.3,32
				c-6.2-8.6-17.6-17.3-17.6-25.9c0-32.5,24.6-22,42.6-25.8C507,642.1,505,630.8,502.6,616.4z M518.3,627.9
				c9.9,15.8,17.4,27.8,27.8,44.5c10.3-17.2,17.5-29.3,26.6-44.5C552.5,627.9,537.9,627.9,518.3,627.9z M517.9,721.4
				c20.6,0,35.3,0,55.6,0c-10-15.9-17.6-28-27.8-44.3C535.4,693.3,528.1,705,517.9,721.4z"/>
			<path fill="#FFFFFF" d="M518.3,627.9c19.6,0,34.2,0,54.4,0c-9,15.1-16.3,27.2-26.6,44.5C535.7,655.8,528.1,643.7,518.3,627.9z"/>
			<path fill="#FFFFFF" d="M517.9,721.4c10.3-16.4,17.6-28,27.8-44.3c10.3,16.3,17.8,28.4,27.8,44.3
				C553.2,721.4,538.5,721.4,517.9,721.4z"/>
		</g>
	</g>
</g>
</svg>
