<?xml version="1.0" encoding="utf-8"?>
<!-- Generator: Adobe Illustrator 15.0.0, SVG Export Plug-In . SVG Version: 6.00 Build 0)  -->
<!DOCTYPE svg PUBLIC "-//W3C//DTD SVG 1.1//EN" "http://www.w3.org/Graphics/SVG/1.1/DTD/svg11.dtd">
<svg version="1.1" id="Layer_1" xmlns="http://www.w3.org/2000/svg" xmlns:xlink="http://www.w3.org/1999/xlink" x="0px" y="0px"
	 width="150px" height="150px" viewBox="-2.5 0.5 150 150" enable-background="new -2.5 0.5 150 150" xml:space="preserve">
<g id="zaAj5h.tif_1_">
	<g>
		<g>
			<path fill="#FFFFFF" d="M2.436,136.455c0-37.664,0-75.248,0-112.91c50.898,0,101.798,0,152.613,0c0,37.662,0,75.246,0,112.91
				C104.233,136.455,53.334,136.455,2.436,136.455z M70.084,72.402c2.368,0,4.819,0,7.188,0c0.815,4.983,2.614,9.967,2.287,14.951
				c-0.653,11.273,2.858,19.035,17.893,20.016c12.99,0.816,23.284-1.797,23.856-14.625c0.652-12.092-7.6-17.482-21.324-17.482
				c-2.532,0-6.699,0.816-7.354-0.164c-5.064-6.943-10.293-14.051-13.397-21.73c-0.653-1.799,6.78-5.884,13.726-11.356
				c0.816,10.213,0.408,15.032,1.715,19.526c3.27,10.865,14.379,12.662,24.103,9.885c6.781-1.879,16.422-9.314,15.933-13.562
				c-0.735-6.291-8.988-16.83-14.543-17.074c-32.271-1.472-64.787-1.39-97.142,0.408C17.469,41.52,9.217,52.059,8.728,58.35
				c-0.408,4.167,10.131,11.928,16.911,12.99c19.199,3.023,25.734-4.493,24.347-25.326c6.128,0.326,12.174,0.652,17.974,0.979
				c1.635,21.16-2.123,26.554-21.404,28.024C32.34,76.16,25.15,82.287,25.885,93.398c0.654,10.049,8.742,15.523,20.916,13.807
				c12.5-1.797,23.119-5.311,20.914-19.36C66.979,82.859,69.184,77.548,70.084,72.402z"/>
			<path fill="#010101" d="M70.084,72.402c-0.899,5.146-3.104,10.457-2.289,15.359c2.207,13.971-8.414,17.564-20.914,19.361
				c-12.338,1.799-20.344-3.758-20.916-13.808c-0.734-11.11,6.537-17.319,20.67-18.382c19.199-1.471,23.039-6.863,21.406-28.023
				c-5.802-0.326-11.766-0.653-17.975-0.979c1.389,20.833-5.146,28.349-24.348,25.326c-6.78-1.062-17.237-8.823-16.91-12.99
				c0.652-6.29,8.822-16.911,14.46-17.237c32.271-1.798,64.788-1.88,97.141-0.408c5.556,0.244,13.808,10.701,14.461,17.074
				c0.49,4.248-9.231,11.683-15.932,13.562c-9.722,2.778-20.833,1.062-24.101-9.884c-1.391-4.494-0.899-9.314-1.717-19.526
				c-6.863,5.637-14.379,9.722-13.726,11.356c3.104,7.598,8.333,14.787,13.397,21.731c0.654,0.979,4.82,0.164,7.354,0.164
				c13.726,0.08,21.896,5.31,21.323,17.483c-0.653,12.908-10.948,15.521-23.856,14.623c-15.032-0.98-18.546-8.742-17.892-20.017
				c0.326-4.901-1.391-9.968-2.288-14.952C74.821,72.402,72.37,72.402,70.084,72.402z M99.658,104.836
				c6.127-5.883,13.235-9.967,12.581-12.744c-0.897-3.758-7.271-8.498-12.01-9.232c-3.351-0.49-11.111,4.902-11.274,7.844
				C88.793,94.461,94.348,98.463,99.658,104.836z M101.129,52.549c0.082,2.859,0.164,5.801,0.244,8.66
				c7.6,0.49,15.196,1.062,22.713,1.471c-0.162-4.166-0.326-8.251-0.408-12.418C116.161,50.996,108.645,51.812,101.129,52.549z
				 M46.063,56.307c-7.435-4.33-12.093-9.232-15.36-8.579c-4.982,0.899-8.986,5.638-13.316,8.742
				c4.412,3.022,8.498,7.517,13.316,8.333C34.135,65.293,38.711,60.638,46.063,56.307z M59.789,92.5
				c-6.455-4.738-10.539-10.049-14.135-9.805c-4.085,0.245-10.212,5.147-10.702,8.577c-0.409,2.779,5.638,8.253,9.642,8.906
				C48.188,100.834,52.762,96.34,59.789,92.5z"/>
			<path fill="#FFFFFF" d="M99.658,104.836c-5.229-6.453-10.785-10.375-10.703-14.133c0.163-2.941,7.844-8.416,11.274-7.844
				c4.819,0.733,11.192,5.393,12.01,9.231C112.894,94.869,105.785,98.953,99.658,104.836z"/>
			<path fill="#FFFFFF" d="M101.129,52.549c7.517-0.735,15.114-1.471,22.549-2.205c0.164,4.166,0.326,8.251,0.408,12.418
				c-7.598-0.49-15.195-1.062-22.713-1.471C101.293,58.268,101.211,55.408,101.129,52.549z"/>
			<path fill="#FFFFFF" d="M46.063,56.307c-7.354,4.33-12.011,8.986-15.36,8.415c-4.9-0.817-8.986-5.312-13.316-8.334
				c4.412-3.104,8.416-7.843,13.316-8.741C33.971,47.156,38.711,51.977,46.063,56.307z"/>
			<path fill="#FFFFFF" d="M59.789,92.5c-6.945,3.758-11.602,8.252-15.195,7.68c-4.004-0.654-10.051-6.127-9.642-8.906
				c0.49-3.35,6.617-8.332,10.702-8.578C49.25,82.533,53.254,87.762,59.789,92.5z"/>
		</g>
	</g>
</g>
</svg>
