<?xml version="1.0" encoding="utf-8"?>
<!-- Generator: Adobe Illustrator 18.1.0, SVG Export Plug-In . SVG Version: 6.00 Build 0)  -->
<svg version="1.1" id="Layer_1" xmlns="http://www.w3.org/2000/svg" xmlns:xlink="http://www.w3.org/1999/xlink" x="0px" y="0px"
	 viewBox="0 0 612 191.2" enable-background="new 0 0 612 191.2" xml:space="preserve">
<g id="zaAj5h.tif_1_">
	<g>
		<g>
			<path fill="#FFFFFF" d="M136.7,221.3c0-73.7,0-147.5,0-221.3c108,0,215.8,0,323.8,0c0,73.7,0,147.5,0,221.3
				C352.5,221.3,244.6,221.3,136.7,221.3z M280,96c5.1,0,10.1,0,15.3,0c1.7,9.7,5.5,19.6,4.9,29.2c-1.5,22,6.1,37.3,37.9,39.2
				c27.5,1.6,49.3-3.4,50.7-28.7c1.3-23.8-16.1-34.2-45.2-34.2c-5.4,0-14.2,1.5-15.6-0.4c-10.7-13.6-21.9-27.6-28.5-42.6
				c-1.5-3.4,14.4-11.4,29.1-22.3c1.7,20,0.7,29.5,3.7,38.3c7,21.4,30.5,24.7,51.2,19.4c14.3-3.7,34.8-18.2,33.8-26.5
				c-1.5-12.3-18.9-32.8-30.8-33.4c-68.5-3-137.4-2.7-205.9,0.8c-11.8,0.6-29.3,21.4-30.4,33.7c-0.7,8.1,21.5,23.4,35.9,25.5
				c40.7,5.9,54.6-8.8,51.7-49.6c13.1,0.7,25.8,1.2,38,1.9c3.5,41.5-4.5,52.1-45.3,55c-30,2.2-45.4,14.2-44,36.2
				c1.3,19.7,18.4,30.3,44.5,27c26.5-3.4,49-10.5,44.5-37.9C273.6,116.4,278.2,106,280,96z"/>
			<path fill="#010101" d="M280,96c-1.8,10.1-6.5,20.4-4.8,30.1c4.6,27.5-17.8,34.4-44.5,37.9c-26.1,3.4-43.1-7.3-44.5-27
				c-1.6-21.8,13.9-34,44-36.2c40.8-3,48.9-13.5,45.3-55c-12.2-0.6-24.9-1.2-38-1.9c3.1,40.8-11,55.5-51.7,49.6
				c-14.4-2.1-36.6-17.4-35.9-25.5c1.1-12.2,18.6-33,30.4-33.7c68.4-3.5,137.4-3.7,205.9-0.8c11.8,0.5,29.3,21.1,30.8,33.4
				c1,8.3-19.5,22.8-33.8,26.5c-20.6,5.3-44.2,2-51.2-19.4c-2.8-8.8-2-18.3-3.7-38.3c-14.7,11-30.5,19-29.1,22.3
				c6.6,15,17.7,28.9,28.5,42.6c1.5,1.9,10.3,0.4,15.6,0.4c29.2,0.1,46.5,10.5,45.2,34.2c-1.3,25.3-23.2,30.3-50.7,28.7
				c-31.9-1.9-39.3-17.2-37.9-39.2c0.6-9.6-3.1-19.5-4.9-29.2C290.2,96,285,96,280,96z M342.8,159.5c13.1-11.5,28.1-19.6,26.7-25
				c-2-7.4-15.4-16.7-25.5-18.1c-7.1-1-23.6,9.6-23.8,15.5C319.8,139.2,331.7,146.9,342.8,159.5z M346,57c0.1,5.6,0.4,11.4,0.5,17
				c16.1,1,32.1,2,48.2,3c-0.2-8.1-0.6-16.2-0.9-24.4C377.9,54,361.9,55.4,346,57z M229.1,64.4c-15.8-8.6-25.6-18.1-32.6-16.9
				c-10.5,1.8-19.1,11-28.3,17.1c9.4,5.8,18,14.8,28.3,16.3C203.8,81.9,213.6,72.8,229.1,64.4z M258.3,135.4
				c-13.7-9.3-22.3-19.7-29.9-19.2c-8.5,0.5-21.6,10.1-22.7,16.8c-0.9,5.4,12,16.2,20.4,17.5C233.6,151.6,243.5,142.7,258.3,135.4z"
				/>
			<path fill="#FFFFFF" d="M342.8,159.5c-11.1-12.7-23-20.3-22.7-27.7c0.2-5.7,16.7-16.4,23.8-15.5c10.1,1.4,23.7,10.6,25.5,18.1
				C370.9,139.9,355.9,148,342.8,159.5z"/>
			<path fill="#FFFFFF" d="M346,57c16-1.4,32-3,47.9-4.4c0.2,8.1,0.6,16.2,0.9,24.4c-16.1-1-32.1-2-48.2-3
				C346.2,68.2,346.1,62.6,346,57z"/>
			<path fill="#FFFFFF" d="M229.1,64.4c-15.6,8.4-25.4,17.6-32.6,16.5c-10.4-1.5-19.1-10.5-28.3-16.3c9.4-6.1,17.8-15.3,28.3-17.1
				C203.6,46.4,213.5,55.8,229.1,64.4z"/>
			<path fill="#FFFFFF" d="M258.3,135.4c-14.8,7.3-24.7,16.2-32.2,15.1c-8.4-1.2-21.4-12-20.4-17.5c1.1-6.7,14-16.3,22.7-16.8
				C235.9,115.7,244.5,126,258.3,135.4z"/>
		</g>
	</g>
</g>
</svg>
