<?xml version="1.0" encoding="utf-8"?>
<!-- Generator: Adobe Illustrator 18.1.0, SVG Export Plug-In . SVG Version: 6.00 Build 0)  -->
<svg version="1.1" id="Layer_1" xmlns="http://www.w3.org/2000/svg" xmlns:xlink="http://www.w3.org/1999/xlink" x="0px" y="0px"
	 viewBox="0 0 612 285.3" enable-background="new 0 0 612 285.3" xml:space="preserve">
<g id="_x37_t2pvV.tif">
	<g>
		<g>
			<path fill="#FFFFFF" d="M411.2,345.1c0-122.9,0-243.3,0-365.2c56.9,0,113.8,0,170.7,0c0,121.1,0,242.9,0,365.2
				C525.5,345.1,469,345.1,411.2,345.1z M480.8,258.8c3.8,0.2,7.5,0.4,11.3,0.6c2.4-22.2,4.9-44.5,7.2-66
				c17.4-1.4,31.2-2.6,46.6-3.8c0-33.5,0-65.2,0-97.6c-17.5-1.9-32.4-3.5-47.5-5.1c-2.1-23.4-4.1-44.2-6-65.1
				c-4.1,0.2-8.1,0.4-12.2,0.6c0,30,0,60,0,91c15.9,1.1,31.1,2.1,47.8,3.2c0,20,0,37.5,0,56.5c-17.6,1.3-32.9,2.5-47.2,3.5
				C480.8,205,480.8,231.9,480.8,258.8z"/>
			<path d="M480.8,258.8c0-26.9,0-53.8,0-82.2c14.3-1.1,29.6-2.2,47.2-3.5c0-18.9,0-36.5,0-56.5c-16.7-1.1-31.9-2.1-47.8-3.2
				c0-31.1,0-61.1,0-91c4.1-0.2,8.1-0.4,12.2-0.6c1.9,20.9,3.8,41.8,6,65.1c15.1,1.6,30.1,3.3,47.5,5.1c0,32.3,0,64,0,97.6
				c-15.4,1.3-29.2,2.4-46.6,3.8c-2.4,21.6-4.8,43.8-7.2,66C488.4,259.2,484.6,259,480.8,258.8z"/>
		</g>
	</g>
</g>
<g id="zaAj5h.tif_1_">
	<g>
		<g>
			<path fill="#FFFFFF" d="M44.8,245.8c0-65.6,0-131.1,0-196.8c82.9,0,165.7,0,248.5,0c0,65.6,0,131.1,0,196.8
				C210.5,245.8,127.7,245.8,44.8,245.8z M154.9,134.3c3.9,0,7.8,0,11.7,0c1.3,8.7,4.2,17.4,3.7,26c-1.1,19.6,4.7,33.2,29.1,34.9
				c21.1,1.4,37.9-3.1,38.9-25.5c1-21.1-12.4-30.4-34.7-30.5c-4.1,0-10.9,1.4-12-0.3c-8.2-12.1-16.8-24.5-21.8-37.9
				c-1.1-3.1,11.1-10.2,22.3-19.8c1.3,17.8,0.6,26.2,2.8,34c5.3,19,23.4,22,39.3,17.2c11-3.3,26.7-16.2,26-23.6
				C259,97.8,245.6,79.5,236.5,79c-52.6-2.6-105.5-2.4-158.1,0.7c-9.1,0.5-22.5,19-23.3,29.9c-0.6,7.2,16.5,20.8,27.6,22.6
				c31.2,5.3,41.9-7.8,39.7-44.1c10,0.6,19.8,1.1,29.2,1.7c2.7,36.9-3.5,46.3-34.8,48.9c-23.1,2-34.9,12.6-33.7,32.1
				c1,17.5,14.2,27,34.1,24c20.3-3.1,37.6-9.3,34.1-33.7C149.9,152.5,153.5,143.2,154.9,134.3z"/>
			<path fill="#010101" d="M154.9,134.3c-1.4,9-5,18.2-3.7,26.8c3.6,24.4-13.7,30.6-34.1,33.7c-20.1,3.1-33.1-6.5-34.1-24
				c-1.2-19.4,10.7-30.2,33.7-32.1c31.3-2.6,37.5-12,34.8-48.9c-9.4-0.5-19.1-1.1-29.2-1.7c2.3,36.3-8.4,49.4-39.7,44.1
				c-11.1-1.9-28.1-15.4-27.6-22.6C56,98.6,69.4,80.1,78.5,79.5c52.5-3.1,105.5-3.3,158.1-0.7c9.1,0.4,22.5,18.7,23.6,29.7
				c0.8,7.4-15,20.3-26,23.6c-15.8,4.8-33.9,1.8-39.3-17.2c-2.2-7.8-1.5-16.3-2.8-34c-11.2,9.8-23.4,16.9-22.3,19.8
				c5.1,13.3,13.6,25.7,21.8,37.9c1.1,1.7,7.9,0.3,12,0.3c22.4,0.1,35.7,9.3,34.7,30.5c-1,22.5-17.8,27-38.9,25.5
				c-24.5-1.7-30.2-15.3-29.1-34.9c0.5-8.6-2.3-17.3-3.7-26C162.7,134.3,158.7,134.3,154.9,134.3z M203.1,190.8
				c10-10.3,21.6-17.4,20.5-22.2c-1.5-6.6-11.8-14.8-19.6-16.1c-5.4-0.8-18.1,8.6-18.3,13.7C185.4,172.7,194.5,179.6,203.1,190.8z
				 M205.5,99.6c0.1,5,0.3,10.1,0.4,15.1c12.4,0.8,24.7,1.8,37,2.6c-0.2-7.2-0.5-14.4-0.7-21.7C230,97,217.7,98.3,205.5,99.6z
				 M115.8,106.2c-12.1-7.6-19.7-16.1-25-15c-8.1,1.6-14.6,9.8-21.7,15.2c7.2,5.2,13.8,13.1,21.7,14.5
				C96.4,121.8,103.9,113.7,115.8,106.2z M138.2,169.3c-10.5-8.3-17.2-17.5-23-17.1c-6.6,0.4-16.6,9-17.4,14.9
				c-0.7,4.8,9.2,14.4,15.7,15.5C119.3,183.8,126.8,175.9,138.2,169.3z"/>
			<path fill="#FFFFFF" d="M203.1,190.8c-8.5-11.3-17.6-18.1-17.4-24.6c0.2-5.1,12.8-14.6,18.3-13.7c7.8,1.3,18.2,9.4,19.6,16.1
				C224.6,173.4,213.1,180.5,203.1,190.8z"/>
			<path fill="#FFFFFF" d="M205.5,99.6c12.3-1.3,24.6-2.6,36.7-3.9c0.2,7.2,0.5,14.4,0.7,21.7c-12.4-0.8-24.7-1.8-37-2.6
				C205.7,109.6,205.6,104.6,205.5,99.6z"/>
			<path fill="#FFFFFF" d="M115.8,106.2c-12,7.5-19.5,15.6-25,14.7c-8-1.4-14.6-9.3-21.7-14.5c7.2-5.4,13.7-13.6,21.7-15.2
				C96.2,90.2,103.8,98.6,115.8,106.2z"/>
			<path fill="#FFFFFF" d="M138.2,169.3c-11.3,6.5-18.9,14.4-24.7,13.4c-6.5-1.1-16.4-10.7-15.7-15.5c0.8-5.9,10.8-14.5,17.4-14.9
				C121,151.9,127.6,161,138.2,169.3z"/>
		</g>
	</g>
</g>
</svg>
