<?xml version="1.0" encoding="utf-8"?>
<!-- Generator: Adobe Illustrator 18.1.0, SVG Export Plug-In . SVG Version: 6.00 Build 0)  -->
<svg version="1.1" id="Layer_1" xmlns="http://www.w3.org/2000/svg" xmlns:xlink="http://www.w3.org/1999/xlink" x="0px" y="0px"
	 viewBox="0 0 612 258.8" enable-background="new 0 0 612 258.8" xml:space="preserve">
<g id="zaAj5h.tif">
	<g>
		<g>
			<path fill="#FFFFFF" d="M0.8,255.9c0-77.3,0-154.6,0-232c88.4,0,176.7,0,265.1,0c0,77.3,0,154.6,0,232
				C177.6,255.9,89.2,255.9,0.8,255.9z M118.2,124.5c4.2,0,8.3,0,12.5,0c1.4,10.2,4.5,20.5,4,30.6c-1.2,23.1,5,39.1,31,41.1
				c22.5,1.7,40.4-3.6,41.5-30.1c1.1-24.9-13.2-35.8-37-35.9c-4.4,0-11.6,1.6-12.8-0.4c-8.8-14.3-17.9-28.9-23.3-44.7
				c-1.2-3.6,11.8-12,23.8-23.4c1.4,21,0.6,30.9,3,40.1c5.7,22.4,25,25.9,41.9,20.3c11.7-3.9,28.5-19.1,27.7-27.8
				c-1.2-12.9-15.5-34.4-25.2-35C149.2,56.1,92.7,56.4,36.7,60c-9.7,0.6-24,22.4-24.9,35.3c-0.6,8.5,17.6,24.5,29.4,26.7
				c33.3,6.2,44.7-9.2,42.3-52c10.7,0.7,21.1,1.3,31.1,2c2.9,43.5-3.7,54.6-37.1,57.7c-24.6,2.3-37.2,14.9-36,37.9
				c1.1,20.6,15.1,31.8,36.4,28.3c21.7-3.6,40.1-11,36.4-39.7C113,145.9,116.8,135,118.2,124.5z"/>
			<path d="M118.2,124.5c-1.5,10.6-5.3,21.4-3.9,31.6c3.8,28.8-14.6,36.1-36.4,39.7c-21.4,3.6-35.3-7.7-36.4-28.3
				c-1.3-22.9,11.4-35.6,36-37.9c33.4-3.1,40-14.1,37.1-57.7c-10-0.6-20.4-1.3-31.1-2c2.5,42.8-9,58.2-42.3,52
				c-11.8-2.2-30-18.2-29.4-26.7C12.7,82.5,27,60.7,36.7,60c56-3.7,112.5-3.9,168.6-0.8c9.7,0.5,24,22.1,25.2,35
				c0.8,8.7-16,23.9-27.7,27.8c-16.9,5.6-36.2,2.1-41.9-20.3c-2.3-9.2-1.6-19.2-3-40.1c-12,11.5-25,19.9-23.8,23.4
				c5.4,15.7,14.5,30.3,23.3,44.7c1.2,2,8.4,0.4,12.8,0.4c23.9,0.1,38.1,11,37,35.9c-1.1,26.5-19,31.8-41.5,30.1
				c-26.1-2-32.2-18-31-41.1c0.5-10.1-2.5-20.4-4-30.6C126.5,124.4,122.4,124.5,118.2,124.5z M169.6,191.1
				c10.7-12.1,23-20.5,21.9-26.2c-1.6-7.8-12.6-17.5-20.9-19c-5.8-1-19.3,10.1-19.5,16.2C150.8,169.8,160.5,177.9,169.6,191.1z
				 M172.2,83.6c0.1,5.9,0.3,11.9,0.4,17.8c13.2,1,26.3,2.1,39.5,3.1c-0.2-8.5-0.5-17-0.7-25.6C198.3,80.5,185.3,82,172.2,83.6z
				 M76.6,91.4c-12.9-9-21-19-26.7-17.7c-8.6,1.9-15.6,11.5-23.2,17.9c7.7,6.1,14.7,15.5,23.2,17.1C55.8,109.8,63.8,100.2,76.6,91.4
				z M100.4,165.8c-11.2-9.8-18.3-20.6-24.5-20.1c-7,0.5-17.7,10.6-18.6,17.6c-0.7,5.7,9.8,17,16.7,18.3
				C80.2,182.8,88.3,173.5,100.4,165.8z"/>
			<path fill="#FFFFFF" d="M169.6,191.1c-9.1-13.3-18.8-21.3-18.6-29c0.2-6,13.7-17.2,19.5-16.2c8.3,1.5,19.4,11.1,20.9,19
				C192.6,170.6,180.3,179,169.6,191.1z"/>
			<path fill="#FFFFFF" d="M172.2,83.6c13.1-1.5,26.2-3.1,39.2-4.6c0.2,8.5,0.5,17,0.7,25.6c-13.2-1-26.3-2.1-39.5-3.1
				C172.5,95.4,172.3,89.5,172.2,83.6z"/>
			<path fill="#FFFFFF" d="M76.6,91.4c-12.8,8.8-20.8,18.4-26.7,17.3c-8.5-1.6-15.6-11-23.2-17.1c7.7-6.4,14.6-16,23.2-17.9
				C55.6,72.5,63.7,82.4,76.6,91.4z"/>
			<path fill="#FFFFFF" d="M100.4,165.8c-12.1,7.7-20.2,17-26.4,15.8c-6.9-1.3-17.5-12.6-16.7-18.3c0.9-7,11.5-17.1,18.6-17.6
				C82.1,145.2,89.2,156,100.4,165.8z"/>
		</g>
	</g>
</g>
<g id="BOLaLV.tif">
	<g>
		<g>
			<path fill="#FFFFFF" d="M627.7,334.1c-86.7,0-173.3,0-260.8,0c0-112.1,0-224.5,0-338.3c86.4,0,173.6,0,260.8,0
				C627.7,107.9,627.7,220.9,627.7,334.1z M448.3,39.7c4.3,22.2,7.6,39.7,11,57.5C428,103,385.2,86.8,385.2,137
				c0,13.3,19.9,26.7,30.6,40c17-16.5,34-33,50.9-49.5c-2.3-4.1-4.6-8.1-7-12.2c14.3,2.5,28.5,5,41.3,7.3
				c-21.2,31.5-40.1,59.6-64.1,95.2c59.8,0,104.9,0,161.4,0c-19.4-35.1-34.8-63.1-48-86.9c14-28,28.5-56.9,45.8-91.2
				C540.3,39.7,497.1,39.7,448.3,39.7z"/>
			<path d="M448.3,39.7c48.8,0,92,0,147.8,0c-17.2,34.3-31.7,63.2-45.8,91.2c13.1,23.8,28.6,51.8,48,86.9c-56.4,0-101.6,0-161.4,0
				c24-35.6,42.9-63.7,64.1-95.2c-12.8-2.3-27-4.8-41.3-7.3c2.3,4.1,4.6,8.1,7,12.2c-17,16.5-34,33-50.9,49.5
				c-10.7-13.3-30.6-26.7-30.6-40c0-50.2,42.8-34,74.1-39.8C455.9,79.3,452.6,61.9,448.3,39.7z M475.6,57.5
				c17.2,24.4,30.3,43,48.3,68.7c17.9-26.6,30.5-45.3,46.3-68.7C535.1,57.5,509.8,57.5,475.6,57.5z M474.9,201.8
				c35.9,0,61.4,0,96.8,0c-17.4-24.6-30.6-43.2-48.4-68.4C505.5,158.5,492.8,176.5,474.9,201.8z"/>
			<path fill="#FFFFFF" d="M475.6,57.5c34.1,0,59.5,0,94.6,0c-15.7,23.3-28.3,42-46.3,68.7C505.9,100.5,492.8,81.9,475.6,57.5z"/>
			<path fill="#FFFFFF" d="M474.9,201.8c17.9-25.4,30.6-43.3,48.3-68.4c17.9,25.2,31,43.8,48.4,68.4
				C536.3,201.8,510.8,201.8,474.9,201.8z"/>
		</g>
	</g>
</g>
</svg>
