<?xml version="1.0" encoding="utf-8"?>
<!-- Generator: Adobe Illustrator 15.0.0, SVG Export Plug-In . SVG Version: 6.00 Build 0)  -->
<!DOCTYPE svg PUBLIC "-//W3C//DTD SVG 1.1//EN" "http://www.w3.org/Graphics/SVG/1.1/DTD/svg11.dtd">
<svg version="1.1" id="Layer_1" xmlns="http://www.w3.org/2000/svg" xmlns:xlink="http://www.w3.org/1999/xlink" x="0px" y="0px"
	 width="150px" height="150px" viewBox="175 175 150 150" enable-background="new 175 175 150 150" xml:space="preserve">
<g id="BOLaLV.tif">
	<g>
		<g>
			<path fill="#FFFFFF" d="M301.698,337.346c-36.355,0-72.712,0-109.396,0c0-49.264,0-98.611,0-148.692c36.275,0,72.795,0,109.396,0
				C301.698,238,301.698,287.592,301.698,337.346z M226.453,208.016c1.798,9.723,3.187,17.484,4.575,25.245
				c-13.153,2.533-31.127-4.575-31.046,17.483c0,5.883,8.334,11.766,12.827,17.566c7.108-7.271,14.298-14.461,21.323-21.732
				c-0.98-1.798-1.96-3.595-2.94-5.393c5.964,1.062,11.928,2.206,17.32,3.187c-8.905,13.807-16.83,26.225-26.88,41.831
				c25.082,0,44.036,0,67.729,0c-8.17-15.441-14.625-27.697-20.099-38.154c5.883-12.337,11.929-25,19.199-40.114
				C265.098,208.016,246.96,208.016,226.453,208.016z"/>
			<path d="M226.453,208.016c20.507,0,38.562,0,62.01,0c-7.189,15.033-13.316,27.778-19.199,40.114
				c5.474,10.458,12.01,22.793,20.099,38.155c-23.693,0-42.647,0-67.729,0c10.05-15.605,17.975-28.023,26.88-41.831
				c-5.393-0.98-11.356-2.124-17.32-3.187c0.98,1.797,1.96,3.595,2.94,5.392c-7.107,7.272-14.297,14.461-21.323,21.733
				c-4.493-5.883-12.827-11.766-12.827-17.566c0-22.058,17.975-14.951,31.046-17.483
				C229.722,225.418,228.251,217.739,226.453,208.016z M237.973,215.86c7.19,10.702,12.745,18.872,20.262,30.229
				c7.517-11.684,12.827-19.935,19.444-30.229C262.892,215.86,252.271,215.86,237.973,215.86z M237.646,279.258
				c15.032,0,25.735,0,40.604,0c-7.271-10.783-12.827-18.953-20.344-30.064C250.473,260.223,245.081,268.146,237.646,279.258z"/>
			<path fill="#FFFFFF" d="M237.973,215.86c14.298,0,25,0,39.706,0c-6.617,10.212-11.846,18.464-19.444,30.229
				C250.637,234.732,245.081,226.562,237.973,215.86z"/>
			<path fill="#FFFFFF" d="M237.646,279.258c7.517-11.193,12.826-19.035,20.261-30.064c7.517,11.111,12.99,19.281,20.344,30.064
				C263.382,279.258,252.679,279.258,237.646,279.258z"/>
		</g>
	</g>
</g>
</svg>
