<?xml version="1.0" encoding="utf-8"?>
<!-- Generator: Adobe Illustrator 18.1.0, SVG Export Plug-In . SVG Version: 6.00 Build 0)  -->
<svg version="1.1" id="Layer_1" xmlns="http://www.w3.org/2000/svg" xmlns:xlink="http://www.w3.org/1999/xlink" x="0px" y="0px"
	 viewBox="0 0 612 261.8" enable-background="new 0 0 612 261.8" xml:space="preserve">
<g id="BOLaLV.tif">
	<g>
		<g>
			<path fill="#FFFFFF" d="M432.5,316.9c-86.7,0-173.3,0-260.8,0c0-112.1,0-224.5,0-338.3c86.4,0,173.6,0,260.8,0
				C432.5,90.7,432.5,203.6,432.5,316.9z M253.1,22.4c4.3,22.2,7.6,39.7,11,57.5c-31.4,5.8-74.2-10.4-74.1,39.8
				c0,13.3,19.9,26.7,30.6,40c17-16.5,34-33,50.9-49.5c-2.3-4.1-4.6-8.1-7-12.2c14.3,2.5,28.5,5,41.3,7.3
				c-21.2,31.5-40.1,59.6-64.1,95.2c59.8,0,104.9,0,161.4,0c-19.4-35.1-34.8-63.1-48-86.9c14-28,28.5-56.9,45.8-91.2
				C345.1,22.4,301.9,22.4,253.1,22.4z"/>
			<path d="M253.1,22.4c48.8,0,92,0,147.8,0c-17.2,34.3-31.7,63.2-45.8,91.2c13.1,23.8,28.6,51.8,48,86.9c-56.4,0-101.6,0-161.4,0
				c24-35.6,42.9-63.7,64.1-95.2c-12.8-2.3-27-4.8-41.3-7.3c2.3,4.1,4.6,8.1,7,12.2c-17,16.5-34,33-50.9,49.5
				c-10.7-13.3-30.6-26.7-30.6-40c0-50.2,42.8-34,74.1-39.8C260.7,62.1,257.3,44.6,253.1,22.4z M280.4,40.3
				c17.2,24.4,30.3,43,48.3,68.7c17.9-26.6,30.5-45.3,46.3-68.7C339.9,40.3,314.5,40.3,280.4,40.3z M279.6,184.6
				c35.9,0,61.4,0,96.8,0C359,160,345.8,141.4,328,116.2C310.3,141.3,297.6,159.2,279.6,184.6z"/>
			<path fill="#FFFFFF" d="M280.4,40.3c34.1,0,59.5,0,94.6,0c-15.7,23.3-28.3,42-46.3,68.7C310.7,83.3,297.6,64.6,280.4,40.3z"/>
			<path fill="#FFFFFF" d="M279.6,184.6c17.9-25.4,30.6-43.3,48.3-68.4c17.9,25.2,31,43.8,48.4,68.4
				C341.1,184.6,315.5,184.6,279.6,184.6z"/>
		</g>
	</g>
</g>
</svg>
