<?xml version="1.0" encoding="utf-8"?>
<!-- Generator: Adobe Illustrator 18.1.0, SVG Export Plug-In . SVG Version: 6.00 Build 0)  -->
<svg version="1.1" id="Layer_1" xmlns="http://www.w3.org/2000/svg" xmlns:xlink="http://www.w3.org/1999/xlink" x="0px" y="0px"
	 viewBox="0 0 612 271.6" enable-background="new 0 0 612 271.6" xml:space="preserve">
<g id="BOLaLV.tif">
	<g>
		<g>
			<path fill="#FFFFFF" d="M251.1,347.3c-86.7,0-173.3,0-260.8,0c0-112.1,0-224.5,0-338.3c86.4,0,173.6,0,260.8,0
				C251.1,121.2,251.1,234.1,251.1,347.3z M71.8,52.9c4.3,22.2,7.6,39.7,11,57.5C51.4,116.2,8.6,100,8.7,150.2
				c0,13.3,19.9,26.7,30.6,40c17-16.5,34-33,50.9-49.5c-2.3-4.1-4.6-8.1-7-12.2c14.3,2.5,28.5,5,41.3,7.3
				c-21.2,31.5-40.1,59.6-64.1,95.2c59.8,0,104.9,0,161.4,0c-19.4-35.1-34.8-63.1-48-86.9c14-28,28.5-56.9,45.8-91.2
				C163.8,52.9,120.6,52.9,71.8,52.9z"/>
			<path d="M71.8,52.9c48.8,0,92,0,147.8,0c-17.2,34.3-31.7,63.2-45.8,91.2c13.1,23.8,28.6,51.8,48,86.9c-56.4,0-101.6,0-161.4,0
				c24-35.6,42.9-63.7,64.1-95.2c-12.8-2.3-27-4.8-41.3-7.3c2.3,4.1,4.6,8.1,7,12.2c-17,16.5-34,33-50.9,49.5
				c-10.7-13.3-30.6-26.7-30.6-40c0-50.2,42.8-34,74.1-39.8C79.4,92.6,76,75.1,71.8,52.9z M99.1,70.7c17.2,24.4,30.3,43,48.3,68.7
				c17.9-26.6,30.5-45.3,46.3-68.7C158.6,70.7,133.2,70.7,99.1,70.7z M98.3,215c35.9,0,61.4,0,96.8,0
				c-17.4-24.6-30.6-43.2-48.4-68.4C129,171.7,116.3,189.7,98.3,215z"/>
			<path fill="#FFFFFF" d="M99.1,70.7c34.1,0,59.5,0,94.6,0c-15.7,23.3-28.3,42-46.3,68.7C129.4,113.7,116.3,95.1,99.1,70.7z"/>
			<path fill="#FFFFFF" d="M98.3,215c17.9-25.4,30.6-43.3,48.3-68.4c17.9,25.2,31,43.8,48.4,68.4C159.8,215,134.2,215,98.3,215z"/>
		</g>
	</g>
</g>
<g id="esDE34.tif">
	<g>
		<g>
			<path fill="#FFFFFF" d="M374.1,349.7c0-113.5,0-227.2,0-341c79.4,0,159,0,238.6,0c0,113.5,0,227.2,0,341
				C533.3,349.7,453.8,349.7,374.1,349.7z M410.2,227.9c63.8,0,119.9,0,183.4,0c-21.4-55.2-40.5-106.3-61.3-156.7
				c-7.7-18.6-19.4-35.6-29.2-53.3c-11.1,17.9-25,34.6-32.9,53.8C449.2,122,430.9,173.4,410.2,227.9z"/>
			<path d="M410.2,227.9c20.7-54.5,39-105.9,59.9-156.2c8-19.2,21.8-35.9,32.9-53.8c9.9,17.7,21.6,34.7,29.2,53.3
				c20.8,50.4,39.9,101.5,61.3,156.7C530.1,227.9,474,227.9,410.2,227.9z M505.6,59.4c-3.7,0.2-7.3,0.3-11,0.5
				c-8.6,24.3-17.2,48.6-26.5,75c24,0,43.3,0,66.8,0C524.4,107.7,515,83.6,505.6,59.4z M490.7,156.3c-44.7-11.2-36.3,25.2-49.5,46.2
				c18.5,0,33.1,0,49.5,0C490.7,186.6,490.7,173,490.7,156.3z M514,157.2c0,15.8,0,30.4,0,48c16.8-0.9,30.9-1.6,45-2.4
				C544.5,184.4,555.8,142.5,514,157.2z"/>
			<path fill="#FFFFFF" d="M505.6,59.4c9.4,24.2,18.8,48.3,29.3,75.5c-23.5,0-42.9,0-66.8,0c9.3-26.4,17.9-50.7,26.5-75
				C498.3,59.7,501.9,59.6,505.6,59.4z"/>
			<path fill="#FFFFFF" d="M490.7,156.3c0,16.7,0,30.3,0,46.2c-16.4,0-31.1,0-49.5,0C454.4,181.5,446,145.1,490.7,156.3z"/>
			<path fill="#FFFFFF" d="M514,157.2c41.8-14.7,30.6,27.2,45,45.6c-14.1,0.7-28.2,1.5-45,2.4C514,187.6,514,173,514,157.2z"/>
		</g>
	</g>
</g>
</svg>
