<?xml version="1.0" encoding="utf-8"?>
<!-- Generator: Adobe Illustrator 18.1.0, SVG Export Plug-In . SVG Version: 6.00 Build 0)  -->
<svg version="1.1" id="Layer_1" xmlns="http://www.w3.org/2000/svg" xmlns:xlink="http://www.w3.org/1999/xlink" x="0px" y="0px"
	 viewBox="0 0 624.1 350" enable-background="new 0 0 624.1 350" xml:space="preserve">
<g id="BOLaLV.tif">
	<g>
		<g>
			<path fill="#FFFFFF" d="M282.3,364.5c-86.7,0-173.3,0-260.8,0c0-112.1,0-224.5,0-338.3c86.4,0,173.6,0,260.8,0
				C282.3,138.4,282.3,251.3,282.3,364.5z M102.9,70.1c4.3,22.2,7.6,39.7,11,57.5c-31.4,5.8-74.2-10.4-74.1,39.8
				c0,13.3,19.9,26.7,30.6,40c17-16.5,34-33,50.9-49.5c-2.3-4.1-4.6-8.1-7-12.2c14.3,2.5,28.5,5,41.3,7.3
				c-21.2,31.5-40.1,59.6-64.1,95.2c59.8,0,104.9,0,161.4,0c-19.4-35.1-34.8-63.1-48-86.9c14-28,28.5-56.9,45.8-91.2
				C195,70.1,151.8,70.1,102.9,70.1z"/>
			<path d="M102.9,70.1c48.8,0,92,0,147.8,0c-17.2,34.3-31.7,63.2-45.8,91.2c13.1,23.8,28.6,51.8,48,86.9c-56.4,0-101.6,0-161.4,0
				c24-35.6,42.9-63.7,64.1-95.2c-12.8-2.3-27-4.8-41.3-7.3c2.3,4.1,4.6,8.1,7,12.2c-17,16.5-34,33-50.9,49.5
				c-10.7-13.3-30.6-26.7-30.6-40c0-50.2,42.8-34,74.1-39.8C110.6,109.8,107.2,92.3,102.9,70.1z M130.3,87.9
				c17.2,24.4,30.3,43,48.3,68.7c17.9-26.6,30.5-45.3,46.3-68.7C189.7,87.9,164.4,87.9,130.3,87.9z M129.5,232.3
				c35.9,0,61.4,0,96.8,0c-17.4-24.6-30.6-43.2-48.4-68.4C160.1,188.9,147.4,206.9,129.5,232.3z"/>
			<path fill="#FFFFFF" d="M130.3,87.9c34.1,0,59.5,0,94.6,0c-15.7,23.3-28.3,42-46.3,68.7C160.6,131,147.4,112.3,130.3,87.9z"/>
			<path fill="#FFFFFF" d="M129.5,232.3c17.9-25.4,30.6-43.3,48.3-68.4c17.9,25.2,31,43.8,48.4,68.4
				C190.9,232.3,165.4,232.3,129.5,232.3z"/>
		</g>
	</g>
</g>
<g id="_x37_t2pvV.tif">
	<g>
		<g>
			<path fill="#FFFFFF" d="M346.5,426.6c0-154.7,0-305.6,0-457.5c86.9,0,173.7,0,261.5,0c0,151.6,0,304,0,457.5
				C522.1,426.6,435.3,426.6,346.5,426.6z M472.2,23.6c-6.6-0.4-13.3-0.9-19.9-1.3c0,37.6,0,75.2,0,113.9
				c25.8,1.8,49.1,3.4,73.5,5.1c0,22.5,0,40.7,0,60.6c-27.3,2.1-50.7,3.9-71.7,5.5c0,39.4,0,76.2,0,113c5.8,0.1,11.7,0.3,17.5,0.4
				c3.1-28.2,6.2-56.3,9.6-88c24.8-1.7,47.8-3.3,72.2-4.9c0-39.9,0-75.6,0-111.4c-27.3-3.2-50.4-5.9-73.2-8.6
				C477.3,77.4,474.8,50.5,472.2,23.6z"/>
			<path d="M472.2,23.6c2.5,26.9,5.1,53.8,8,84.4c22.8,2.7,45.9,5.4,73.2,8.6c0,35.8,0,71.5,0,111.4c-24.4,1.7-47.4,3.2-72.2,4.9
				c-3.5,31.6-6.6,59.8-9.6,88c-5.8-0.1-11.7-0.3-17.5-0.4c0-36.8,0-73.6,0-113c21-1.6,44.4-3.4,71.7-5.5c0-19.9,0-38.1,0-60.6
				c-24.4-1.7-47.7-3.3-73.5-5.1c0-38.8,0-76.4,0-113.9C458.9,22.7,465.6,23.2,472.2,23.6z"/>
		</g>
	</g>
</g>
</svg>
