<?xml version="1.0" encoding="utf-8"?>
<!-- Generator: Adobe Illustrator 15.0.0, SVG Export Plug-In . SVG Version: 6.00 Build 0)  -->
<!DOCTYPE svg PUBLIC "-//W3C//DTD SVG 1.1//EN" "http://www.w3.org/Graphics/SVG/1.1/DTD/svg11.dtd">
<svg version="1.1" id="Layer_1" xmlns="http://www.w3.org/2000/svg" xmlns:xlink="http://www.w3.org/1999/xlink" x="0px" y="0px"
	 width="150px" height="150px" viewBox="175 175 150 150" enable-background="new 175 175 150 150" xml:space="preserve">
<g id="_x37_t2pvV.tif">
	<g>
		<g>
			<path fill="#FFFFFF" d="M178.638,332.72c0-52.37,0-103.759,0-155.72c42.319,0,84.722,0,127.042,0c0,51.635,0,103.595,0,155.72
				C263.687,332.72,221.692,332.72,178.638,332.72z M230.435,295.954c2.859,0.082,5.556,0.164,8.415,0.245
				c1.798-9.477,3.677-18.954,5.393-28.104c12.99-0.571,23.202-1.144,34.722-1.634c0-14.297,0-27.777,0-41.585
				c-12.99-0.816-24.102-1.471-35.376-2.206c-1.552-9.967-3.022-18.872-4.493-27.777c-3.022,0.081-6.046,0.163-9.068,0.245
				c0,12.826,0,25.571,0,38.807c11.847,0.49,23.121,0.899,35.539,1.39c0,8.496,0,16.013,0,24.101
				c-13.072,0.572-24.51,1.062-35.131,1.471C230.435,272.997,230.435,284.517,230.435,295.954z"/>
			<path d="M230.435,295.954c0-11.438,0-22.957,0-35.049c10.621-0.49,22.059-0.898,35.131-1.471c0-8.088,0-15.522,0-24.101
				c-12.418-0.49-23.774-0.899-35.539-1.39c0-13.235,0-26.062,0-38.807c3.022-0.082,6.046-0.164,9.068-0.245
				c1.389,8.905,2.859,17.811,4.493,27.777c11.274,0.654,22.386,1.39,35.376,2.206c0,13.808,0,27.288,0,41.585
				c-11.438,0.572-21.731,1.062-34.722,1.634c-1.798,9.232-3.595,18.71-5.393,28.105
				C236.072,296.118,233.294,296.036,230.435,295.954z"/>
		</g>
	</g>
</g>
</svg>
