<?xml version="1.0" encoding="utf-8"?>
<!-- Generator: Adobe Illustrator 18.1.0, SVG Export Plug-In . SVG Version: 6.00 Build 0)  -->
<svg version="1.1" id="Layer_1" xmlns="http://www.w3.org/2000/svg" xmlns:xlink="http://www.w3.org/1999/xlink" x="0px" y="0px"
	 viewBox="0 0 612 387.6" enable-background="new 0 0 612 387.6" xml:space="preserve">
<g id="_x37_t2pvV.tif">
	<g>
		<g>
			<path fill="#FFFFFF" d="M175.3,471.5c0-154.7,0-305.6,0-457.5c86.9,0,173.7,0,261.5,0c0,151.6,0,304,0,457.5
				C350.9,471.5,264.1,471.5,175.3,471.5z M301,68.5c-6.6-0.4-13.3-0.9-19.9-1.3c0,37.6,0,75.2,0,113.9c25.8,1.8,49.1,3.4,73.5,5.1
				c0,22.5,0,40.7,0,60.6c-27.3,2.1-50.7,3.9-71.7,5.5c0,39.4,0,76.2,0,113c5.8,0.1,11.7,0.3,17.5,0.4c3.1-28.2,6.2-56.3,9.6-88
				c24.8-1.7,47.8-3.3,72.2-4.9c0-39.9,0-75.6,0-111.4c-27.3-3.2-50.4-5.9-73.2-8.6C306.1,122.3,303.6,95.4,301,68.5z"/>
			<path d="M301,68.5c2.5,26.9,5.1,53.8,8,84.4c22.8,2.7,45.9,5.4,73.2,8.6c0,35.8,0,71.5,0,111.4c-24.4,1.7-47.4,3.2-72.2,4.9
				c-3.5,31.6-6.6,59.8-9.6,88c-5.8-0.1-11.7-0.3-17.5-0.4c0-36.8,0-73.6,0-113c21-1.6,44.4-3.4,71.7-5.5c0-19.9,0-38.1,0-60.6
				c-24.4-1.7-47.7-3.3-73.5-5.1c0-38.8,0-76.4,0-113.9C287.8,67.6,294.4,68,301,68.5z"/>
		</g>
	</g>
</g>
</svg>
