<?xml version="1.0" encoding="utf-8"?>
<!-- Generator: Adobe Illustrator 18.1.0, SVG Export Plug-In . SVG Version: 6.00 Build 0)  -->
<svg version="1.1" id="Layer_1" xmlns="http://www.w3.org/2000/svg" xmlns:xlink="http://www.w3.org/1999/xlink" x="0px" y="0px"
	 viewBox="0 0 603.5 354.4" enable-background="new 0 0 603.5 354.4" xml:space="preserve">
<g id="_x37_t2pvV.tif">
	<g>
		<g>
			<path fill="#FFFFFF" d="M-35.8,419.3c0-154.7,0-305.6,0-457.5c86.9,0,173.7,0,261.5,0c0,151.6,0,304,0,457.5
				C139.8,419.3,52.9,419.3-35.8,419.3z M89.9,16.2c-6.6-0.4-13.3-0.9-19.9-1.3c0,37.6,0,75.2,0,113.9c25.8,1.8,49.1,3.4,73.5,5.1
				c0,22.5,0,40.7,0,60.6c-27.3,2.1-50.7,3.9-71.7,5.5c0,39.4,0,76.2,0,113c5.8,0.1,11.7,0.3,17.5,0.4c3.1-28.2,6.2-56.3,9.6-88
				c24.8-1.7,47.8-3.3,72.2-4.9c0-39.9,0-75.6,0-111.4c-27.3-3.2-50.4-5.9-73.2-8.6C95,70,92.4,43.1,89.9,16.2z"/>
			<path d="M89.9,16.2c2.5,26.9,5.1,53.8,8,84.4c22.8,2.7,45.9,5.4,73.2,8.6c0,35.8,0,71.5,0,111.4c-24.4,1.7-47.4,3.2-72.2,4.9
				c-3.5,31.6-6.6,59.8-9.6,88c-5.8-0.1-11.7-0.3-17.5-0.4c0-36.8,0-73.6,0-113c21-1.6,44.4-3.4,71.7-5.5c0-19.9,0-38.1,0-60.6
				c-24.4-1.7-47.7-3.3-73.5-5.1c0-38.8,0-76.4,0-113.9C76.6,15.4,83.2,15.8,89.9,16.2z"/>
		</g>
	</g>
</g>
<g id="esDE34.tif">
	<g>
		<g>
			<path fill="#FFFFFF" d="M317.3,452.1c0-150.7,0-301.3,0-453.2c97.1,0,194.6,0,293.8,0c0,150.2,0,301.7,0,453.2
				C514.2,452.1,415.9,452.1,317.3,452.1z M586.1,280.3c-32.1-89-62.3-174-94.7-258.1c-1.6-4.1-32.3-4.2-33.8-0.2
				c-32.2,84-62.1,168.9-94.1,258.2C440.6,280.3,509.7,280.3,586.1,280.3z"/>
			<path d="M586.1,280.3c-76.4,0-145.5,0-222.6,0c32-89.4,61.9-174.2,94.1-258.2c1.5-4,32.2-4,33.8,0.2
				C523.9,106.3,554,191.3,586.1,280.3z M478.5,60.9c-3.7,0.7-7.4,1.3-11.2,2c-11.1,33.2-22.1,66.3-33.9,101.5c30.7,0,54.5,0,83,0
				C502.8,127.3,490.6,94.1,478.5,60.9z M464.2,259.5c-1.1-23.2-1.9-40-2.7-58.4c-50.7-9.8-54.4,22.9-60,58.4
				C422,259.5,440.2,259.5,464.2,259.5z M547.5,258.8c-13.5-61.2-14-61.6-57.7-52.2c0,17,0,33.8,0,52.2
				C510.6,258.8,528.7,258.8,547.5,258.8z"/>
			<path fill="#FFFFFF" d="M478.5,60.9c12.2,33.2,24.3,66.4,37.9,103.5c-28.5,0-52.2,0-83,0c11.7-35.2,22.8-68.3,33.9-101.5
				C471,62.2,474.8,61.6,478.5,60.9z"/>
			<path fill="#FFFFFF" d="M464.2,259.5c-24,0-42.2,0-62.8,0c5.6-35.4,9.3-68.2,60-58.4C462.3,219.5,463.1,236.3,464.2,259.5z"/>
			<path fill="#FFFFFF" d="M547.5,258.8c-18.8,0-36.9,0-57.7,0c0-18.3,0-35.2,0-52.2C533.4,197.3,533.9,197.7,547.5,258.8z"/>
		</g>
	</g>
</g>
</svg>
