<?xml version="1.0" encoding="utf-8"?>
<!-- Generator: Adobe Illustrator 18.1.0, SVG Export Plug-In . SVG Version: 6.00 Build 0)  -->
<svg version="1.1" id="Layer_1" xmlns="http://www.w3.org/2000/svg" xmlns:xlink="http://www.w3.org/1999/xlink" x="0px" y="0px"
	 viewBox="0 0 612 314.1" enable-background="new 0 0 612 314.1" xml:space="preserve">
<g id="esDE34.tif">
	<g>
		<g>
			<path fill="#FFFFFF" d="M134.2,440.8c0-150.7,0-301.3,0-453.2c97.1,0,194.6,0,293.8,0c0,150.2,0,301.7,0,453.2
				C331.1,440.8,232.9,440.8,134.2,440.8z M403.1,269C371,180,340.8,95,308.4,10.9c-1.6-4.1-32.3-4.2-33.8-0.2
				c-32.2,84-62.1,168.9-94.1,258.2C257.6,269,326.7,269,403.1,269z"/>
			<path d="M403.1,269c-76.4,0-145.5,0-222.6,0c32-89.4,61.9-174.2,94.1-258.2c1.5-4,32.2-4,33.8,0.2C340.8,95,371,180,403.1,269z
				 M295.4,49.6c-3.7,0.7-7.4,1.3-11.2,2c-11.1,33.2-22.1,66.3-33.9,101.5c30.7,0,54.5,0,83,0C319.7,116,307.6,82.8,295.4,49.6z
				 M281.1,248.2c-1.1-23.2-1.9-40-2.7-58.4c-50.7-9.8-54.4,22.9-60,58.4C238.9,248.2,257.1,248.2,281.1,248.2z M364.4,247.5
				c-13.5-61.2-14-61.6-57.7-52.2c0,17,0,33.8,0,52.2C327.5,247.5,345.6,247.5,364.4,247.5z"/>
			<path fill="#FFFFFF" d="M295.4,49.6c12.2,33.2,24.3,66.4,37.9,103.5c-28.5,0-52.2,0-83,0c11.7-35.2,22.8-68.3,33.9-101.5
				C288,51,291.7,50.3,295.4,49.6z"/>
			<path fill="#FFFFFF" d="M281.1,248.2c-24,0-42.2,0-62.8,0c5.6-35.4,9.3-68.2,60-58.4C279.2,208.2,280,225,281.1,248.2z"/>
			<path fill="#FFFFFF" d="M364.4,247.5c-18.8,0-36.9,0-57.7,0c0-18.3,0-35.2,0-52.2C350.4,186,350.9,186.4,364.4,247.5z"/>
		</g>
	</g>
</g>
</svg>
